<svg width="47" height="41" viewBox="0 0 47 41" fill="none" xmlns="http://www.w3.org/2000/svg">
<rect width="47" height="41" fill="#1E1E1E"/>
<g clip-path="url(#clip0_0_1)">
<rect width="1440" height="3719" transform="translate(-30 -80)" fill="white"/>
<path d="M24.674 40.9974L24.6846 41C24.6341 38.4021 24.5894 35.8055 24.5318 33.2076C24.4988 31.7339 24.4483 30.2614 24.4048 28.7889C27.2337 26.7091 30.0626 24.6292 32.8903 22.5481C33.9215 21.7892 34.9526 21.0316 35.9767 20.2649C37.3923 19.2055 37.3594 17.4598 35.8862 16.4743C33.7286 15.0316 31.5546 13.6161 29.3877 12.1889C29.3912 8.52654 29.3924 4.86414 29.4018 1.20173C29.4018 0.801562 29.4465 0.401392 29.4712 0.0012207C29.5664 0.0465475 29.6699 0.0789238 29.7581 0.138496C33.6475 2.7014 37.564 5.22028 41.4087 7.86348C42.4822 8.60166 43.4981 9.58201 44.28 10.6763C48.2917 16.2904 47.1559 24.3106 41.6545 28.4302C38.8632 30.5217 36.0543 32.586 33.2536 34.662C30.393 36.7742 27.5335 38.8864 24.6729 40.9974H24.674Z" fill="#3B8AC9"/>
<path d="M13.4197 34.6608C10.619 32.5848 7.81129 30.5205 5.01884 28.429C-0.482575 24.3094 -1.61837 16.2892 2.39335 10.6751C3.17524 9.58079 4.18993 8.60173 5.26458 7.86226C9.10934 5.21776 13.0258 2.70018 16.9153 0.137275C17.0046 0.0789981 17.1069 0.0453268 17.2022 0C17.2257 0.400171 17.2703 0.800342 17.2715 1.20051C17.2809 4.86292 17.2821 8.52532 17.2856 12.1877C15.1187 13.6149 12.9459 15.0304 10.7872 16.4731C9.31392 17.4586 9.281 19.2043 10.6966 20.2637C11.7219 21.0303 12.753 21.7879 13.783 22.5468C16.6107 24.628 19.4396 26.7078 22.2685 28.7877C22.2262 30.2602 22.1745 31.7339 22.1416 33.2064C22.0839 35.803 22.0393 38.4009 21.9887 40.9987L21.9993 40.9961C19.1386 38.8839 16.2792 36.7717 13.4185 34.6608H13.4197Z" fill="#65C2CB"/>
</g>
<defs>
<clipPath id="clip0_0_1">
<rect width="1440" height="3719" fill="white" transform="translate(-30 -80)"/>
</clipPath>
</defs>
</svg>
