<svg width="59" height="24" viewBox="0 0 59 24" fill="none" xmlns="http://www.w3.org/2000/svg">
<path d="M2.46125 11.0249C1.37955 9.8166 0.846924 8.33118 0.846924 6.55307C0.846924 4.77497 1.37955 3.27271 2.46125 2.08126C3.54296 0.872977 4.90685 0.268188 6.55293 0.268188C8.5435 0.268188 10.3307 1.37287 11.2713 3.1173L9.40534 4.30875C8.85626 3.2209 7.8063 2.58244 6.55175 2.58244C5.48533 2.58244 4.62349 2.94506 3.96506 3.68712C3.32192 4.42919 2.9927 5.37976 2.9927 6.55307C2.9927 7.72639 3.32192 8.66012 3.96506 9.40218C4.62349 10.1442 5.48533 10.5069 6.55175 10.5069C7.8063 10.5069 8.888 9.85027 9.40534 8.79739L11.2713 9.98884C10.3307 11.7333 8.55879 12.838 6.55293 12.838C4.90685 12.838 3.54296 12.2332 2.46125 11.0249Z" fill="white"/>
<path d="M15.896 12.8376C14.7355 12.8376 13.7479 12.4064 12.9484 11.5257C12.1489 10.6451 11.7573 9.55725 11.7573 8.27904C11.7573 7.00082 12.1489 5.93111 12.9484 5.05048C13.7479 4.16984 14.7355 3.72046 15.896 3.72046C17.0565 3.72046 18.0442 4.16984 18.8437 5.05048C19.6432 5.93111 20.0512 7.00212 20.0512 8.27904C20.0512 9.55596 19.6432 10.6451 18.8437 11.5257C18.0442 12.4064 17.0565 12.8376 15.896 12.8376ZM15.896 10.6619C16.5074 10.6619 17.0095 10.4379 17.4163 9.98851C17.8243 9.53912 18.0277 8.9693 18.0277 8.27904C18.0277 7.58877 17.8243 7.01895 17.4163 6.56957C17.0083 6.12019 16.5074 5.89614 15.896 5.89614C15.2846 5.89614 14.7826 6.12019 14.3758 6.56957C13.9842 7.01895 13.7796 7.58877 13.7796 8.27904C13.7796 8.9693 13.9831 9.53912 14.3758 9.98851C14.7838 10.4379 15.2846 10.6619 15.896 10.6619Z" fill="white"/>
<path d="M27.0256 0.508983H29.0479V12.5957H27.0256V11.5765C26.4294 12.4222 25.5829 12.8366 24.4859 12.8366C23.3889 12.8366 22.5271 12.4053 21.7746 11.5247C21.0374 10.6441 20.6611 9.55621 20.6611 8.278C20.6611 6.99978 21.0374 5.93007 21.7746 5.04943C22.5271 4.1688 23.4359 3.71942 24.4859 3.71942C25.5359 3.71942 26.4294 4.13383 27.0256 4.9795V0.50769V0.508983ZM24.8622 10.714C25.4888 10.714 26.0062 10.4899 26.4142 10.0406C26.8222 9.57434 27.0256 8.98768 27.0256 8.27929C27.0256 7.5709 26.8222 6.98424 26.4142 6.53486C26.0062 6.06864 25.4888 5.8446 24.8622 5.8446C24.2355 5.8446 23.7181 6.06864 23.2949 6.53486C22.8869 6.98424 22.6835 7.5709 22.6835 8.27929C22.6835 8.98768 22.8869 9.57434 23.2949 10.0406C23.7181 10.4899 24.2355 10.714 24.8622 10.714Z" fill="white"/>
<path d="M32.2131 9.19464C32.48 10.2825 33.216 10.8173 34.4235 10.8173C35.1913 10.8173 35.7874 10.5234 36.1789 9.95354L37.8085 10.9896C37.0408 12.216 35.8967 12.8376 34.3918 12.8376C33.0902 12.8376 32.0555 12.4064 31.2724 11.5426C30.4882 10.6788 30.0967 9.59092 30.0967 8.27904C30.0967 6.96715 30.4882 5.89614 31.2572 5.03234C32.0249 4.15171 33.029 3.72046 34.2354 3.72046C35.3794 3.72046 36.3365 4.15171 37.0725 5.03234C37.825 5.91298 38.2013 6.98399 38.2013 8.27904C38.2013 8.57301 38.1695 8.8657 38.1225 9.19464H32.2131ZM36.1789 7.46834C35.9438 6.29373 35.1595 5.7239 34.2354 5.7239C33.1537 5.7239 32.4165 6.36236 32.1813 7.46834H36.1789Z" fill="white"/>
<path d="M45.1137 3.96259H47.136V12.5954H45.1137V11.5762C44.5023 12.4219 43.6557 12.8363 42.5588 12.8363C41.4618 12.8363 40.6152 12.405 39.8627 11.5244C39.1255 10.6438 38.7493 9.55591 38.7493 8.2777C38.7493 6.99948 39.1255 5.92977 39.8627 5.04913C40.6152 4.1685 41.5088 3.71912 42.5588 3.71912C43.6087 3.71912 44.5023 4.13353 45.1137 4.9792V3.95999V3.96259ZM42.935 10.7137C43.5617 10.7137 44.079 10.4896 44.487 10.0403C44.9103 9.57404 45.1137 8.98738 45.1137 8.27899C45.1137 7.5706 44.9103 6.98394 44.487 6.53456C44.079 6.06834 43.5617 5.8443 42.935 5.8443C42.3083 5.8443 41.791 6.06834 41.383 6.53456C40.975 6.98394 40.7716 7.5706 40.7716 8.27899C40.7716 8.98738 40.975 9.57404 41.383 10.0403C41.791 10.4896 42.3083 10.7137 42.935 10.7137Z" fill="white"/>
<path d="M50.6 5.44685C50.9762 4.34217 51.9169 3.78918 52.9833 3.78918V6.27568C52.3719 6.18891 51.8075 6.32748 51.3219 6.6901C50.8363 7.05271 50.6012 7.63937 50.6012 8.4682V12.5942H48.5789V3.96142H50.6012V5.44685H50.6Z" fill="white"/>
<path d="M58.4694 6.10357H56.6975V9.69474C56.6975 10.6272 57.3089 10.644 58.4694 10.5754V12.5957C55.6946 12.9414 54.6764 12.0608 54.6764 9.69474V6.10357H53.3125V3.96285H54.6764V2.21841L56.6987 1.54498V3.96285H58.4706V6.10357H58.4694Z" fill="white"/>
<path d="M9.2902 17.7992V18.2292H8.02037V22.3552H7.6065V18.2292H6.33667V17.7992H9.2902Z" fill="white"/>
<path d="M10.3884 19.6393C10.5718 19.2417 10.8787 19.0474 11.322 19.0474V19.4644C10.7846 19.4644 10.3884 19.796 10.3884 20.5445V22.3537H9.99805V19.1005H10.3884V19.6406V19.6393Z" fill="white"/>
<path d="M14.807 19.0994H15.1974V22.3525H14.807V21.7154C14.5354 22.1907 14.1392 22.4316 13.6136 22.4316C13.1938 22.4316 12.8341 22.2684 12.5319 21.9368C12.2368 21.6053 12.0886 21.2012 12.0886 20.726C12.0886 20.2507 12.2368 19.8479 12.5319 19.5151C12.8329 19.1836 13.1938 19.0204 13.6136 19.0204C14.1392 19.0204 14.5354 19.2613 14.807 19.7366V19.0994ZM13.643 22.0145C13.9675 22.0145 14.245 21.8915 14.4696 21.6442C14.6941 21.3903 14.8058 21.0847 14.8058 20.726C14.8058 20.3672 14.6941 20.0629 14.4696 19.8155C14.245 19.5617 13.9675 19.4387 13.643 19.4387C13.3185 19.4387 13.0398 19.5617 12.8152 19.8155C12.5907 20.0629 12.479 20.3685 12.479 20.726C12.479 21.0834 12.5907 21.3903 12.8152 21.6442C13.0398 21.8915 13.3173 22.0145 13.643 22.0145Z" fill="white"/>
<path d="M16.6094 18.3184C16.4977 18.1954 16.4977 17.9998 16.6094 17.8755C16.7211 17.7524 16.8986 17.7524 17.0115 17.8755C17.1232 17.9985 17.1232 18.1941 17.0115 18.3184C16.8998 18.4414 16.7223 18.4414 16.6094 18.3184ZM16.6153 22.3525V19.0993H17.0056V22.3525H16.6153Z" fill="white"/>
<path d="M20.9634 20.3557V22.3539H20.5731V20.3557C20.5731 19.7768 20.2838 19.4388 19.77 19.4388C19.2033 19.4388 18.813 19.8221 18.813 20.6497V22.3539H18.4226V19.1008H18.813V19.6084C19.0317 19.2186 19.362 19.0231 19.8053 19.0231C20.5202 19.0231 20.9634 19.5437 20.9634 20.357V20.3557Z" fill="white"/>
<path d="M22.3037 18.3184C22.192 18.1954 22.192 17.9998 22.3037 17.8755C22.4154 17.7524 22.593 17.7524 22.7059 17.8755C22.8176 17.9985 22.8176 18.1941 22.7059 18.3184C22.5942 18.4414 22.4166 18.4414 22.3037 18.3184ZM22.3096 22.3525V19.0993H22.7V22.3525H22.3096Z" fill="white"/>
<path d="M26.6575 20.3557V22.3539H26.2672V20.3557C26.2672 19.7768 25.9779 19.4388 25.4641 19.4388C24.8974 19.4388 24.5071 19.8221 24.5071 20.6497V22.3539H24.1167V19.1008H24.5071V19.6084C24.7257 19.2186 25.0561 19.0231 25.4994 19.0231C26.2143 19.0231 26.6575 19.5437 26.6575 20.357V20.3557Z" fill="white"/>
<path d="M30.5461 19.0993H30.9364V22.223C30.9364 22.6918 30.7883 23.0622 30.499 23.329C30.2098 23.5958 29.8606 23.7317 29.4538 23.7317C28.7624 23.7317 28.2956 23.465 28.0534 22.9379L28.3956 22.7229C28.5731 23.1205 28.927 23.3147 29.4526 23.3147C30.1322 23.3147 30.5461 22.8913 30.5461 22.2217V21.714C30.2745 22.1893 29.8782 22.4302 29.3527 22.4302C28.9329 22.4302 28.5731 22.267 28.2721 21.9355C27.977 21.604 27.8289 21.1999 27.8289 20.7246C27.8289 20.2493 27.977 19.8466 28.2721 19.5138C28.5731 19.1822 28.9341 19.019 29.3527 19.019C29.8782 19.019 30.2745 19.2599 30.5461 19.7352V19.098V19.0993ZM29.382 22.0145C29.7066 22.0145 29.9852 21.8915 30.2086 21.6441C30.4332 21.3903 30.5449 21.0846 30.5449 20.7259C30.5449 20.3672 30.4332 20.0629 30.2086 19.8155C29.984 19.5617 29.7066 19.4386 29.382 19.4386C29.0575 19.4386 28.7789 19.5617 28.5555 19.8155C28.3309 20.0629 28.2192 20.3685 28.2192 20.7259C28.2192 21.0834 28.3309 21.3903 28.5555 21.6441C28.7801 21.8915 29.0575 22.0145 29.382 22.0145Z" fill="white"/>
<path d="M34.8574 21.7478C34.4494 21.2919 34.2424 20.7324 34.2424 20.0759C34.2424 19.4193 34.4494 18.8585 34.8574 18.4039C35.2654 17.9481 35.785 17.7202 36.4105 17.7202C37.1724 17.7202 37.852 18.1566 38.2001 18.8391L37.8344 19.0735C37.5746 18.5205 37.0255 18.1631 36.4105 18.1631C35.8967 18.1631 35.4711 18.3457 35.1466 18.716C34.8221 19.0864 34.6563 19.5358 34.6563 20.0759C34.6563 20.6159 34.8221 21.0653 35.1466 21.4357C35.4711 21.806 35.8967 21.9886 36.4105 21.9886C37.0255 21.9886 37.5746 21.6312 37.8344 21.0782L38.2001 21.3062C37.8638 21.9899 37.1724 22.4316 36.4105 22.4316C35.7839 22.4316 35.2642 22.2036 34.8574 21.7478Z" fill="white"/>
<path d="M41.8052 19.5359C42.0768 19.8739 42.2132 20.2779 42.2132 20.7403C42.2132 20.7856 42.2073 20.8568 42.2014 20.9423H39.6077C39.6841 21.6002 40.1509 22.0159 40.7834 22.0159C41.2326 22.0159 41.5689 21.7944 41.7346 21.4629L42.0768 21.6844C41.8169 22.1467 41.3502 22.4329 40.7776 22.4329C40.3108 22.4329 39.9334 22.2697 39.643 21.9511C39.3537 21.6326 39.2056 21.222 39.2056 20.7273C39.2056 20.2326 39.3467 19.8363 39.6371 19.51C39.9263 19.1849 40.2932 19.0217 40.7482 19.0217C41.2032 19.0217 41.5395 19.1914 41.8064 19.5359H41.8052ZM39.6077 20.5253H41.8111C41.7699 20.1808 41.6512 19.914 41.4501 19.7249C41.2491 19.5359 41.0127 19.4387 40.747 19.4387C40.1321 19.4387 39.6841 19.8816 39.6065 20.5253H39.6077Z" fill="white"/>
<path d="M45.9649 20.3557V22.3539H45.5746V20.3557C45.5746 19.7768 45.2853 19.4388 44.7715 19.4388C44.2048 19.4388 43.8144 19.8221 43.8144 20.6497V22.3539H43.4241V19.1008H43.8144V19.6084C44.0331 19.2186 44.3635 19.0231 44.8068 19.0231C45.5216 19.0231 45.9649 19.5437 45.9649 20.357V20.3557Z" fill="white"/>
<path d="M48.8771 19.5163H48.0259V21.4874C48.0259 22.0469 48.3092 22.0015 48.8771 21.9756V22.3525C48.0505 22.4898 47.6367 22.2424 47.6367 21.4874V19.5163H47.0159V19.0993H47.6367V18.3184L48.027 18.1889V19.0993H48.8783V19.5163H48.8771Z" fill="white"/>
<path d="M52.3623 19.5359C52.6339 19.8739 52.7703 20.2779 52.7703 20.7403C52.7703 20.7856 52.7644 20.8568 52.7586 20.9423H50.1648C50.2412 21.6002 50.708 22.0159 51.3406 22.0159C51.7897 22.0159 52.126 21.7944 52.2918 21.4629L52.6339 21.6844C52.3741 22.1467 51.9073 22.4329 51.3347 22.4329C50.8679 22.4329 50.4905 22.2697 50.2001 21.9511C49.9108 21.6326 49.7627 21.222 49.7627 20.7273C49.7627 20.2326 49.9038 19.8363 50.1942 19.51C50.4834 19.1849 50.8503 19.0217 51.3053 19.0217C51.7603 19.0217 52.0966 19.1914 52.3635 19.5359H52.3623ZM50.1648 20.5253H52.3682C52.327 20.1808 52.2083 19.914 52.0072 19.7249C51.8062 19.5359 51.5699 19.4387 51.3041 19.4387C50.6892 19.4387 50.2412 19.8816 50.1636 20.5253H50.1648Z" fill="white"/>
<path d="M54.3703 19.6393C54.5538 19.2417 54.8606 19.0474 55.3039 19.0474V19.4644C54.7666 19.4644 54.3703 19.796 54.3703 20.5445V22.3537H53.98V19.1005H54.3703V19.6406V19.6393Z" fill="white"/>
</svg>
