<svg width="58" height="25" viewBox="0 0 58 25" fill="none" xmlns="http://www.w3.org/2000/svg">
<rect width="58" height="25" fill="#1E1E1E"/>
<g clip-path="url(#clip0_0_1)">
<rect width="1440" height="3719" transform="translate(-83 -88)" fill="white"/>
<path d="M1.93196 11.525C0.85025 10.3167 0.317627 8.8313 0.317627 7.05319C0.317627 5.27509 0.85025 3.77283 1.93196 2.58138C3.01366 1.3731 4.37755 0.768311 6.02363 0.768311C8.01421 0.768311 9.80137 1.87299 10.742 3.61742L8.87604 4.80887C8.32696 3.72102 7.277 3.08257 6.02245 3.08257C4.95603 3.08257 4.09419 3.44518 3.43576 4.18724C2.79262 4.92931 2.4634 5.87988 2.4634 7.05319C2.4634 8.22651 2.79262 9.16024 3.43576 9.90231C4.09419 10.6444 4.95603 11.007 6.02245 11.007C7.277 11.007 8.35871 10.3504 8.87604 9.29751L10.742 10.489C9.80137 12.2334 8.02949 13.3381 6.02363 13.3381C4.37755 13.3381 3.01366 12.7333 1.93196 11.525Z" fill="#1B213F"/>
<path d="M15.3667 13.3379C14.2062 13.3379 13.2186 12.9066 12.4191 12.026C11.6196 11.1453 11.228 10.0575 11.228 8.77928C11.228 7.50107 11.6196 6.43135 12.4191 5.55072C13.2186 4.67008 14.2062 4.2207 15.3667 4.2207C16.5272 4.2207 17.5149 4.67008 18.3144 5.55072C19.1139 6.43135 19.5219 7.50236 19.5219 8.77928C19.5219 10.0562 19.1139 11.1453 18.3144 12.026C17.5149 12.9066 16.5272 13.3379 15.3667 13.3379ZM15.3667 11.1622C15.9781 11.1622 16.4802 10.9381 16.887 10.4887C17.295 10.0394 17.4984 9.46954 17.4984 8.77928C17.4984 8.08902 17.295 7.5192 16.887 7.06982C16.479 6.62043 15.9781 6.39639 15.3667 6.39639C14.7553 6.39639 14.2533 6.62043 13.8465 7.06982C13.4549 7.5192 13.2503 8.08902 13.2503 8.77928C13.2503 9.46954 13.4538 10.0394 13.8465 10.4887C14.2545 10.9381 14.7553 11.1622 15.3667 11.1622Z" fill="#1B213F"/>
<path d="M26.4963 1.0091H28.5186V13.0958H26.4963V12.0766C25.9002 12.9223 25.0536 13.3367 23.9566 13.3367C22.8596 13.3367 21.9978 12.9054 21.2453 12.0248C20.5081 11.1442 20.1318 10.0563 20.1318 8.77812C20.1318 7.4999 20.5081 6.43019 21.2453 5.54955C21.9978 4.66892 22.9066 4.21954 23.9566 4.21954C25.0066 4.21954 25.9002 4.63396 26.4963 5.47962V1.00781V1.0091ZM24.3329 11.2141C24.9595 11.2141 25.4769 10.9901 25.8849 10.5407C26.2929 10.0745 26.4963 9.48781 26.4963 8.77941C26.4963 8.07102 26.2929 7.48436 25.8849 7.03498C25.4769 6.56876 24.9595 6.34472 24.3329 6.34472C23.7062 6.34472 23.1888 6.56876 22.7656 7.03498C22.3576 7.48436 22.1542 8.07102 22.1542 8.77941C22.1542 9.48781 22.3576 10.0745 22.7656 10.5407C23.1888 10.9901 23.7062 11.2141 24.3329 11.2141Z" fill="#1B213F"/>
<path d="M31.6838 9.69488C31.9507 10.7827 32.6867 11.3176 33.8942 11.3176C34.662 11.3176 35.2581 11.0236 35.6496 10.4538L37.2792 11.4898C36.5115 12.7162 35.3674 13.3379 33.8625 13.3379C32.5609 13.3379 31.5262 12.9066 30.7431 12.0428C29.9589 11.179 29.5674 10.0912 29.5674 8.77928C29.5674 7.46739 29.9589 6.39639 30.7279 5.53259C31.4956 4.65195 32.4997 4.2207 33.7061 4.2207C34.8501 4.2207 35.8072 4.65195 36.5432 5.53259C37.2957 6.41322 37.672 7.48423 37.672 8.77928C37.672 9.07326 37.6402 9.36594 37.5932 9.69488H31.6838ZM35.6496 7.96858C35.4145 6.79397 34.6302 6.22415 33.7061 6.22415C32.6244 6.22415 31.8872 6.86261 31.652 7.96858H35.6496Z" fill="#1B213F"/>
<path d="M44.5844 4.46271H46.6067V13.0955H44.5844V12.0763C43.973 12.922 43.1265 13.3364 42.0295 13.3364C40.9325 13.3364 40.0859 12.9051 39.3334 12.0245C38.5962 11.1439 38.22 10.056 38.22 8.77782C38.22 7.4996 38.5962 6.42989 39.3334 5.54925C40.0859 4.66862 40.9795 4.21924 42.0295 4.21924C43.0794 4.21924 43.973 4.63366 44.5844 5.47932V4.46012V4.46271ZM42.4057 11.2138C43.0324 11.2138 43.5497 10.9898 43.9577 10.5404C44.381 10.0742 44.5844 9.4875 44.5844 8.77911C44.5844 8.07072 44.381 7.48406 43.9577 7.03468C43.5497 6.56846 43.0324 6.34442 42.4057 6.34442C41.779 6.34442 41.2617 6.56846 40.8537 7.03468C40.4457 7.48406 40.2423 8.07072 40.2423 8.77911C40.2423 9.4875 40.4457 10.0742 40.8537 10.5404C41.2617 10.9898 41.779 11.2138 42.4057 11.2138Z" fill="#1B213F"/>
<path d="M50.0707 5.94697C50.447 4.84229 51.3876 4.28931 52.454 4.28931V6.7758C51.8426 6.68903 51.2782 6.82761 50.7926 7.19022C50.307 7.55283 50.0719 8.13949 50.0719 8.96833V13.0944H48.0496V4.46155H50.0719V5.94697H50.0707Z" fill="#1B213F"/>
<path d="M57.9401 6.60375H56.1682V10.1949C56.1682 11.1274 56.7796 11.1442 57.9401 11.0756V13.0958C55.1653 13.4416 54.1471 12.561 54.1471 10.1949V6.60375H52.7832V4.46303H54.1471V2.71859L56.1694 2.04517V4.46303H57.9413V6.60375H57.9401Z" fill="#1B213F"/>
<path d="M8.7609 18.2993V18.7293H7.49107V22.8553H7.0772V18.7293H5.80737V18.2993H8.7609Z" fill="#1B213F"/>
<path d="M9.8591 20.1395C10.0425 19.7419 10.3494 19.5476 10.7927 19.5476V19.9646C10.2553 19.9646 9.8591 20.2962 9.8591 21.0447V22.8539H9.46875V19.6007H9.8591V20.1407V20.1395Z" fill="#1B213F"/>
<path d="M14.2777 19.5995H14.6681V22.8527H14.2777V22.2155C14.0061 22.6908 13.6099 22.9317 13.0843 22.9317C12.6645 22.9317 12.3048 22.7685 12.0026 22.437C11.7075 22.1054 11.5593 21.7014 11.5593 21.2261C11.5593 20.7508 11.7075 20.348 12.0026 20.0152C12.3036 19.6837 12.6645 19.5205 13.0843 19.5205C13.6099 19.5205 14.0061 19.7614 14.2777 20.2367V19.5995ZM13.1137 22.5147C13.4382 22.5147 13.7157 22.3916 13.9403 22.1443C14.1648 21.8905 14.2765 21.5848 14.2765 21.2261C14.2765 20.8674 14.1648 20.563 13.9403 20.3157C13.7157 20.0618 13.4382 19.9388 13.1137 19.9388C12.7892 19.9388 12.5105 20.0618 12.286 20.3157C12.0614 20.563 11.9497 20.8687 11.9497 21.2261C11.9497 21.5835 12.0614 21.8905 12.286 22.1443C12.5105 22.3916 12.788 22.5147 13.1137 22.5147Z" fill="#1B213F"/>
<path d="M16.0801 18.8184C15.9684 18.6954 15.9684 18.4998 16.0801 18.3755C16.1918 18.2524 16.3694 18.2524 16.4822 18.3755C16.5939 18.4985 16.5939 18.6941 16.4822 18.8184C16.3705 18.9414 16.193 18.9414 16.0801 18.8184ZM16.086 22.8525V19.5993H16.4763V22.8525H16.086Z" fill="#1B213F"/>
<path d="M20.4341 20.8558V22.8541H20.0438V20.8558C20.0438 20.2769 19.7546 19.9389 19.2407 19.9389C18.674 19.9389 18.2837 20.3222 18.2837 21.1498V22.8541H17.8933V19.6009H18.2837V20.1086C18.5024 19.7187 18.8328 19.5232 19.276 19.5232C19.9909 19.5232 20.4341 20.0438 20.4341 20.8571V20.8558Z" fill="#1B213F"/>
<path d="M21.7744 18.8184C21.6627 18.6954 21.6627 18.4998 21.7744 18.3755C21.8861 18.2524 22.0637 18.2524 22.1766 18.3755C22.2883 18.4985 22.2883 18.6941 22.1766 18.8184C22.0649 18.9414 21.8873 18.9414 21.7744 18.8184ZM21.7803 22.8525V19.5993H22.1707V22.8525H21.7803Z" fill="#1B213F"/>
<path d="M26.1282 20.8558V22.8541H25.7379V20.8558C25.7379 20.2769 25.4486 19.9389 24.9348 19.9389C24.3681 19.9389 23.9778 20.3222 23.9778 21.1498V22.8541H23.5874V19.6009H23.9778V20.1086C24.1964 19.7187 24.5268 19.5232 24.9701 19.5232C25.685 19.5232 26.1282 20.0438 26.1282 20.8571V20.8558Z" fill="#1B213F"/>
<path d="M30.0168 19.5996H30.4071V22.7232C30.4071 23.1921 30.259 23.5624 29.9697 23.8292C29.6805 24.096 29.3313 24.232 28.9245 24.232C28.2331 24.232 27.7663 23.9652 27.5241 23.4381L27.8663 23.2231C28.0438 23.6207 28.3977 23.815 28.9233 23.815C29.6029 23.815 30.0168 23.3915 30.0168 22.722V22.2143C29.7452 22.6896 29.3489 22.9305 28.8234 22.9305C28.4036 22.9305 28.0438 22.7673 27.7428 22.4357C27.4477 22.1042 27.2996 21.7002 27.2996 21.2249C27.2996 20.7496 27.4477 20.3468 27.7428 20.014C28.0438 19.6825 28.4048 19.5193 28.8234 19.5193C29.3489 19.5193 29.7452 19.7602 30.0168 20.2355V19.5983V19.5996ZM28.8528 22.5147C29.1773 22.5147 29.4559 22.3917 29.6793 22.1444C29.9039 21.8905 30.0156 21.5849 30.0156 21.2262C30.0156 20.8674 29.9039 20.5631 29.6793 20.3157C29.4547 20.0619 29.1773 19.9389 28.8528 19.9389C28.5282 19.9389 28.2496 20.0619 28.0262 20.3157C27.8016 20.5631 27.6899 20.8687 27.6899 21.2262C27.6899 21.5836 27.8016 21.8905 28.0262 22.1444C28.2508 22.3917 28.5282 22.5147 28.8528 22.5147Z" fill="#1B213F"/>
<path d="M34.3281 22.2478C33.9201 21.792 33.7131 21.2325 33.7131 20.5759C33.7131 19.9193 33.9201 19.3586 34.3281 18.904C34.7361 18.4481 35.2557 18.2202 35.8813 18.2202C36.6431 18.2202 37.3227 18.6566 37.6708 19.3391L37.3051 19.5735C37.0453 19.0206 36.4962 18.6631 35.8813 18.6631C35.3674 18.6631 34.9418 18.8457 34.6173 19.2161C34.2928 19.5865 34.127 20.0359 34.127 20.5759C34.127 21.116 34.2928 21.5653 34.6173 21.9357C34.9418 22.3061 35.3674 22.4887 35.8813 22.4887C36.4962 22.4887 37.0453 22.1313 37.3051 21.5783L37.6708 21.8062C37.3345 22.49 36.6431 22.9316 35.8813 22.9316C35.2546 22.9316 34.7349 22.7037 34.3281 22.2478Z" fill="#1B213F"/>
<path d="M41.2759 20.0361C41.5475 20.3741 41.6839 20.7782 41.6839 21.2405C41.6839 21.2858 41.678 21.3571 41.6721 21.4425H39.0784C39.1548 22.1004 39.6216 22.5161 40.2542 22.5161C40.7033 22.5161 41.0396 22.2947 41.2053 21.9631L41.5475 22.1846C41.2877 22.6469 40.8209 22.9331 40.2483 22.9331C39.7815 22.9331 39.4041 22.77 39.1137 22.4514C38.8244 22.1328 38.6763 21.7223 38.6763 21.2276C38.6763 20.7328 38.8174 20.3366 39.1078 20.0102C39.397 19.6852 39.7639 19.522 40.2189 19.522C40.6739 19.522 41.0102 19.6916 41.2771 20.0361H41.2759ZM39.0784 21.0255H41.2818C41.2406 20.681 41.1219 20.4143 40.9208 20.2252C40.7198 20.0361 40.4834 19.939 40.2177 19.939C39.6028 19.939 39.1548 20.3819 39.0772 21.0255H39.0784Z" fill="#1B213F"/>
<path d="M45.4356 20.8558V22.8541H45.0453V20.8558C45.0453 20.2769 44.756 19.9389 44.2422 19.9389C43.6755 19.9389 43.2851 20.3222 43.2851 21.1498V22.8541H42.8948V19.6009H43.2851V20.1086C43.5038 19.7187 43.8342 19.5232 44.2775 19.5232C44.9923 19.5232 45.4356 20.0438 45.4356 20.8571V20.8558Z" fill="#1B213F"/>
<path d="M48.3478 20.0164H47.4966V21.9875C47.4966 22.5469 47.7799 22.5016 48.3478 22.4757V22.8525C47.5212 22.9898 47.1074 22.7425 47.1074 21.9875V20.0164H46.4866V19.5994H47.1074V18.8185L47.4977 18.689V19.5994H48.349V20.0164H48.3478Z" fill="#1B213F"/>
<path d="M51.833 20.0361C52.1046 20.3741 52.241 20.7782 52.241 21.2405C52.241 21.2858 52.2351 21.3571 52.2293 21.4425H49.6355C49.7119 22.1004 50.1787 22.5161 50.8113 22.5161C51.2604 22.5161 51.5967 22.2947 51.7625 21.9631L52.1046 22.1846C51.8448 22.6469 51.378 22.9331 50.8054 22.9331C50.3386 22.9331 49.9612 22.77 49.6708 22.4514C49.3815 22.1328 49.2334 21.7223 49.2334 21.2276C49.2334 20.7328 49.3745 20.3366 49.6649 20.0102C49.9541 19.6852 50.321 19.522 50.776 19.522C51.231 19.522 51.5673 19.6916 51.8342 20.0361H51.833ZM49.6355 21.0255H51.8389C51.7977 20.681 51.679 20.4143 51.4779 20.2252C51.2769 20.0361 51.0406 19.939 50.7748 19.939C50.1599 19.939 49.7119 20.3819 49.6343 21.0255H49.6355Z" fill="#1B213F"/>
<path d="M53.841 20.1395C54.0245 19.7419 54.3313 19.5476 54.7746 19.5476V19.9646C54.2373 19.9646 53.841 20.2962 53.841 21.0447V22.8539H53.4507V19.6007H53.841V20.1407V20.1395Z" fill="#1B213F"/>
</g>
<defs>
<clipPath id="clip0_0_1">
<rect width="1440" height="3719" fill="white" transform="translate(-83 -88)"/>
</clipPath>
</defs>
<!-- Code injected by live-server -->
</svg>
