<svg width="48" height="42" viewBox="0 0 48 42" fill="none" xmlns="http://www.w3.org/2000/svg">
<path d="M25.2033 41.4975L25.2139 41.5001C25.1634 38.9022 25.1187 36.3056 25.0611 33.7078C25.0281 32.234 24.9776 30.7615 24.9341 29.289C27.763 27.2092 30.5919 25.1293 33.4196 23.0482C34.4508 22.2893 35.4819 21.5317 36.506 20.765C37.9216 19.7057 37.8887 17.9599 36.4155 16.9744C34.2579 15.5317 32.0839 14.1162 29.917 12.6891C29.9205 9.02667 29.9217 5.36426 29.9311 1.70186C29.9311 1.30168 29.9758 0.901514 30.0005 0.501343C30.0957 0.54667 30.1992 0.579046 30.2874 0.638618C34.1768 3.20152 38.0933 5.7204 41.938 8.3636C43.0115 9.10178 44.0274 10.0821 44.8093 11.1765C48.821 16.7905 47.6852 24.8108 42.1838 28.9303C39.3925 31.0218 36.5836 33.0861 33.7829 35.1621C30.9223 37.2743 28.0628 39.3866 25.2022 41.4975H25.2033Z" fill="#3B8AC9"/>
<path d="M13.949 35.1608C11.1483 33.0848 8.34059 31.0205 5.54814 28.929C0.0467217 24.8094 -1.08907 16.7892 2.92265 11.1751C3.70454 10.0808 4.71922 9.10173 5.79388 8.36226C9.63864 5.71776 13.5551 3.20018 17.4446 0.637275C17.5339 0.578998 17.6362 0.545327 17.7314 0.5C17.755 0.900171 17.7996 1.30034 17.8008 1.70051C17.8102 5.36292 17.8114 9.02532 17.8149 12.6877C15.648 14.1149 13.4752 15.5304 11.3165 16.9731C9.84322 17.9586 9.8103 19.7043 11.2259 20.7637C12.2512 21.5303 13.2823 22.2879 14.3123 23.0468C17.14 25.128 19.9689 27.2078 22.7978 29.2877C22.7555 30.7602 22.7038 32.2339 22.6709 33.7064C22.6132 36.303 22.5686 38.9009 22.518 41.4987L22.5286 41.4961C19.6679 39.3839 16.8085 37.2717 13.9478 35.1608H13.949Z" fill="#65C2CB"/>
</svg>
