<svg width="87" height="21" viewBox="0 0 87 21" fill="none" xmlns="http://www.w3.org/2000/svg">
<path d="M2.4248 7.87494C2.42356 6.98545 2.59838 6.10451 2.93919 5.2829C3.28 4.46128 3.78006 3.71525 4.41054 3.0878C5.04101 2.46035 5.78945 1.96389 6.61269 1.62704C7.43593 1.29019 8.3177 1.11961 9.20718 1.12513C12.9187 1.15272 15.8875 4.23775 15.8875 7.95968V8.62494C15.8875 11.9827 16.59 13.9311 17.2087 14.996C17.2753 15.1098 17.3108 15.2392 17.3115 15.371C17.3122 15.5029 17.2781 15.6326 17.2127 15.7471C17.1473 15.8616 17.0528 15.9568 16.9388 16.0232C16.8249 16.0895 16.6954 16.1246 16.5635 16.1249H1.74798C1.6161 16.1246 1.48663 16.0895 1.37265 16.0231C1.25867 15.9568 1.1642 15.8616 1.09877 15.747C1.03335 15.6325 0.999283 15.5028 1.00001 15.3709C1.00074 15.239 1.03624 15.1096 1.10292 14.9959C1.72198 13.9309 2.4248 11.9825 2.4248 8.62494L2.4248 7.87494Z" stroke="#1D2026" stroke-width="1.5" stroke-linecap="round" stroke-linejoin="round"/>
<path d="M6.15576 16.125V16.875C6.15576 17.6706 6.47183 18.4337 7.03444 18.9963C7.59705 19.5589 8.36011 19.875 9.15576 19.875C9.95141 19.875 10.7145 19.5589 11.2771 18.9963C11.8397 18.4337 12.1558 17.6706 12.1558 16.875V16.125" stroke="#1D2026" stroke-width="1.5" stroke-linecap="round" stroke-linejoin="round"/>
<path d="M41.6865 18.625C41.6865 18.625 32.3115 13.375 32.3115 7.00001C32.3117 5.87326 32.7021 4.78135 33.4164 3.90993C34.1307 3.03851 35.1247 2.44136 36.2295 2.22001C37.3343 1.99867 38.4817 2.16679 39.4765 2.69579C40.4714 3.22479 41.2523 4.08202 41.6865 5.12173L41.6865 5.12173C42.1208 4.08202 42.9017 3.22479 43.8965 2.69579C44.8914 2.16679 46.0387 1.99867 47.1435 2.22001C48.2483 2.44136 49.2424 3.03851 49.9566 3.90993C50.6709 4.78135 51.0613 5.87326 51.0615 7.00001C51.0615 13.375 41.6865 18.625 41.6865 18.625Z" stroke="#1D2026" stroke-width="1.5" stroke-linecap="round" stroke-linejoin="round"/>
<path d="M73.5615 18.375C73.5615 18.7892 73.2257 19.125 72.8115 19.125C72.3973 19.125 72.0615 18.7892 72.0615 18.375C72.0615 17.9608 72.3973 17.625 72.8115 17.625C73.2257 17.625 73.5615 17.9608 73.5615 18.375Z" fill="#1D2026" stroke="#1D2026" stroke-width="1.5"/>
<path d="M82.5615 19.875C83.39 19.875 84.0615 19.2034 84.0615 18.375C84.0615 17.5466 83.39 16.875 82.5615 16.875C81.7331 16.875 81.0615 17.5466 81.0615 18.375C81.0615 19.2034 81.7331 19.875 82.5615 19.875Z" fill="#1D2026"/>
<path d="M69.2758 4.875H86.0972L83.6224 13.5371C83.5328 13.8505 83.3436 14.1262 83.0834 14.3225C82.8231 14.5188 82.506 14.625 82.1801 14.625H73.193C72.867 14.625 72.5499 14.5188 72.2897 14.3225C72.0294 14.1262 71.8402 13.8505 71.7507 13.5371L68.3598 1.66896C68.315 1.51225 68.2204 1.37439 68.0903 1.27624C67.9602 1.17809 67.8016 1.125 67.6387 1.125H66.0615" stroke="#1D2026" stroke-width="1.5" stroke-linecap="round" stroke-linejoin="round"/>
<!-- Code injected by live-server -->
</svg>
