<svg width="100" height="174" viewBox="0 0 100 174" fill="none" xmlns="http://www.w3.org/2000/svg">
<path d="M60.8256 50.8377C58.4577 52.2076 50.2055 54.8033 46.768 52.0057C43.6897 49.5014 43.4292 31.5384 44.7158 25.7798C45.1657 23.7562 51.7209 27.6305 52.4155 29.3321C53.0114 30.7741 52.0209 44.3533 52.5142 44.6513C53.3035 45.132 55.9122 45.5262 60.056 46.2328C63.9552 46.8961 62.4871 49.8715 60.8256 50.8377Z" fill="#F7A9A0"/>
<path d="M52.5814 35.2733L43.8161 30.2213C43.8161 30.2213 42.3085 48.5112 46.5787 52.3662C47.5653 53.2555 54.1363 54.7312 60.3245 51.5058C62.2385 50.506 65.2142 47.0595 59.5352 45.9636C53.8561 44.8676 52.8063 44.4783 52.7037 44.31C52.6011 44.1418 52.5814 35.2733 52.5814 35.2733Z" fill="#A6A6A6"/>
<g opacity="0.1">
<path d="M48.3624 39.2485C48.5146 39.3941 48.7065 39.4637 48.8993 39.4432C49.0921 39.4226 49.2712 39.3135 49.4003 39.1379C49.9055 38.4457 49.6608 37.2681 49.4003 36.4846C49.1399 35.7011 48.6821 34.8551 47.9322 34.7109C47.8297 34.69 47.7245 34.7021 47.627 34.7461C47.5295 34.7901 47.4432 34.8644 47.3765 34.9615C47.3099 35.0587 47.2653 35.1755 47.2472 35.3001C47.229 35.4248 47.238 35.5531 47.2731 35.6722C47.3758 36.2779 47.6362 36.8307 47.7625 37.4315C47.8888 38.0324 47.877 38.8159 48.3624 39.2485Z" fill="black"/>
<path d="M49.2267 42.9257C49.6687 42.6373 49.7437 41.8586 49.7397 41.3154C49.7387 41.0221 49.6689 40.7352 49.5385 40.4886C49.4544 40.3132 49.3167 40.1854 49.1555 40.1332C48.9943 40.0809 48.8227 40.1085 48.6781 40.2098C48.5068 40.3691 48.3935 40.6038 48.3624 40.8636C48.3393 40.9932 48.3261 41.1251 48.3229 41.2577V41.3346C48.2242 41.7254 48.2053 42.1395 48.2677 42.5411C48.3016 42.6517 48.3556 42.7515 48.4254 42.8333C48.4953 42.9151 48.5794 42.9767 48.6715 43.0136C48.7635 43.0505 48.8612 43.0618 48.9573 43.0466C49.0534 43.0313 49.1454 42.99 49.2267 42.9257Z" fill="black"/>
<path d="M51.5946 41.6807C51.9155 40.7321 51.9845 39.6849 51.7919 38.6861C51.6656 37.8882 51.3973 36.5807 50.6632 36.374C50.5836 36.3634 50.5032 36.3825 50.4327 36.4289C50.3622 36.4752 50.3049 36.5466 50.2686 36.6336C49.9686 37.2296 50.2686 38.2679 50.3238 38.9216C50.383 39.7484 50.3238 40.58 50.3869 41.4067C50.4077 41.569 50.4692 41.7194 50.5631 41.8372C50.657 41.955 50.7786 42.0344 50.9111 42.0644C51.0437 42.0945 51.1806 42.0737 51.303 42.005C51.4254 41.9363 51.5273 41.823 51.5946 41.6807Z" fill="black"/>
<path d="M47.435 45.8001C47.5359 45.8961 47.6532 45.9635 47.7783 45.9972C47.9721 46.0351 48.1704 45.9837 48.3348 45.853C48.5034 45.7074 48.6392 45.5123 48.7294 45.2858C48.8132 45.0734 48.8512 44.8385 48.8399 44.6033L48.7886 44.4062L48.7057 44.2043C48.6443 44.0994 48.5642 44.0129 48.4713 43.9512C48.3785 43.8896 48.2753 43.8544 48.1696 43.8484C48.064 43.8424 47.9586 43.8657 47.8614 43.9165C47.7642 43.9673 47.6778 44.0444 47.6086 44.1418C47.4628 44.3241 47.3307 44.5219 47.214 44.733L47.1548 44.9541C47.131 45.0677 47.131 45.1867 47.1548 45.3002C47.195 45.5029 47.2947 45.6807 47.435 45.8001Z" fill="black"/>
<path d="M49.7437 45.5358C49.8656 45.6012 50.0015 45.6173 50.1315 45.5819C50.2614 45.5464 50.3786 45.4612 50.466 45.3387C50.6327 45.0806 50.7415 44.7742 50.7817 44.4494C50.8411 44.1528 50.8329 43.842 50.758 43.5506C50.7293 43.4545 50.6805 43.3692 50.6163 43.3032C50.5522 43.2372 50.4751 43.1928 50.3925 43.1743C50.3099 43.1558 50.2248 43.164 50.1456 43.198C50.0664 43.2319 49.9959 43.2905 49.9411 43.3679C49.8274 43.5678 49.7346 43.7842 49.6648 44.012C49.6253 44.1082 49.5819 44.1995 49.5385 44.2908C49.4823 44.431 49.4373 44.5775 49.4043 44.7282C49.3807 44.8895 49.4011 45.0558 49.4624 45.2016C49.5237 45.3474 49.6225 45.4648 49.7437 45.5358Z" fill="black"/>
</g>
<path d="M44.0529 32.9612C44.7791 33.24 45.4816 33.6486 46.1801 34.0139C46.8786 34.3792 47.5614 34.7445 48.2481 35.1195C49.6333 35.8693 51.0462 36.5903 52.388 37.4507C52.3931 37.4532 52.3975 37.4576 52.4006 37.4631C52.4037 37.4687 52.4054 37.4753 52.4054 37.482C52.4054 37.4887 52.4037 37.4953 52.4006 37.5009C52.3975 37.5064 52.3931 37.5107 52.388 37.5132C50.9357 36.9268 49.5268 36.1481 48.1258 35.403C47.4233 35.0281 46.7247 34.6404 46.0301 34.2398C45.3536 33.8795 44.6947 33.4719 44.0569 33.0189C44.0016 32.9997 44.0292 32.9468 44.0529 32.9612Z" fill="#263238"/>
<path opacity="0.1" d="M60.3323 51.5058C54.1441 54.7312 47.5731 53.2555 46.5904 52.3662C44.6171 50.5781 43.8673 45.6848 43.6423 40.9501L52.6484 43.4448C52.6439 43.7409 52.661 44.0369 52.6996 44.3292C52.8022 44.5023 53.8363 44.8868 59.5272 45.9828C65.2181 47.0787 62.2463 50.506 60.3323 51.5058Z" fill="black"/>
<path d="M39.2776 173.709C40.0196 174.007 61.2362 173.935 62.0413 173.31C62.3491 173.074 62.5188 169.306 62.6214 164.754C62.6412 163.792 62.6609 162.759 62.6727 161.721C62.6727 160.5 62.7004 159.265 62.7083 158.063C62.7359 152.665 62.6727 147.916 62.6727 147.916H48.8598V161.692L48.9309 164.725C48.9309 164.725 40.8207 169.181 39.9959 169.984C39.171 170.786 38.5278 173.396 39.2776 173.709Z" fill="#F7A9A0"/>
<path d="M39.2775 173.709C40.0195 174.007 61.2361 173.935 62.0412 173.31C62.349 173.074 62.5187 169.306 62.6213 164.754C62.6411 163.792 62.6608 162.759 62.6726 161.721C62.6726 160.5 62.7003 159.265 62.7082 158.063H48.8676V161.692L48.9387 164.725C48.9387 164.725 40.8285 169.181 40.0037 169.984C39.1788 170.786 38.5277 173.396 39.2775 173.709Z" fill="white"/>
<path d="M39.2144 173.733C39.6959 173.925 48.7335 173.964 55.3124 173.8C56.8358 173.762 58.2249 173.709 59.3497 173.646C60.8967 173.56 61.9347 173.459 62.1123 173.329C62.5069 173.036 62.6648 167.508 62.7477 161.677H48.8637L48.9348 164.725C48.9348 164.725 40.7772 169.205 39.9485 170.012C39.1197 170.82 38.4725 173.425 39.2144 173.733Z" fill="white"/>
<path d="M39.5184 172.69C43.094 172.57 57.5225 172.502 61.0665 172.714C61.0942 172.714 61.0942 172.738 61.0665 172.743C57.5146 172.954 43.094 172.882 39.5184 172.743C39.4434 172.748 39.4434 172.695 39.5184 172.69Z" fill="#263238"/>
<path d="M48.4256 163.764C49.8345 163.437 51.5552 163.692 52.6326 164.912C52.676 164.961 52.6326 165.028 52.5735 165.013C51.2278 164.489 49.8399 164.143 48.4335 163.98C48.4129 163.976 48.3941 163.963 48.3802 163.944C48.3663 163.925 48.3582 163.901 48.3573 163.876C48.3563 163.85 48.3626 163.825 48.3751 163.805C48.3875 163.784 48.4054 163.77 48.4256 163.764Z" fill="#263238"/>
<path d="M47.4112 164.509C48.8201 164.187 50.5408 164.441 51.6182 165.662C51.6616 165.706 51.6182 165.778 51.559 165.763C50.2131 165.24 48.8253 164.892 47.4191 164.725C47.3985 164.721 47.3797 164.708 47.3658 164.689C47.3519 164.67 47.3438 164.646 47.3429 164.621C47.3419 164.595 47.3482 164.57 47.3607 164.55C47.3731 164.53 47.391 164.515 47.4112 164.509Z" fill="#263238"/>
<path d="M46.4208 165.259C47.8258 164.937 49.5465 165.191 50.6239 166.407C50.6673 166.455 50.6239 166.528 50.5647 166.508C49.2173 165.986 47.8282 165.64 46.4208 165.475C46.4005 165.47 46.3822 165.456 46.3691 165.436C46.356 165.417 46.3489 165.392 46.3489 165.367C46.3489 165.341 46.356 165.317 46.3691 165.297C46.3822 165.277 46.4005 165.264 46.4208 165.259Z" fill="#263238"/>
<path d="M45.3867 166.018C46.7917 165.696 48.5124 165.951 49.5898 167.167C49.6332 167.215 49.5898 167.287 49.5306 167.268C48.1851 166.743 46.7971 166.397 45.3907 166.234C45.3702 166.23 45.3517 166.217 45.3382 166.197C45.3248 166.178 45.3171 166.154 45.3167 166.128C45.3162 166.103 45.3229 166.078 45.3357 166.058C45.3484 166.038 45.3665 166.024 45.3867 166.018Z" fill="#263238"/>
<path d="M46.4564 162.245C47.451 163.206 48.7494 163.567 49.9136 164.086C49.94 164.094 49.9678 164.095 49.9945 164.088C50.0211 164.081 50.0461 164.066 50.0672 164.045C50.0884 164.024 50.1051 163.997 50.1162 163.966C50.1272 163.936 50.1322 163.903 50.1307 163.869C50.1367 163.869 50.1425 163.867 50.1478 163.863C50.1531 163.86 50.1576 163.855 50.161 163.849C50.1644 163.843 50.1667 163.836 50.1676 163.829C50.1685 163.821 50.168 163.814 50.1662 163.807C49.7352 162.291 48.9838 160.94 47.9877 159.889C47.3996 159.293 46.3696 158.88 45.8171 159.808C45.2646 160.735 45.8723 161.692 46.4564 162.245ZM46.0933 160.87C45.8408 158.991 47.5023 159.971 47.9206 160.433C48.1871 160.733 48.4375 161.054 48.6704 161.394C49.1391 162.117 49.5764 162.87 49.9807 163.648C49.4242 163.35 48.848 163.11 48.2797 162.841C47.6049 162.533 46.2315 161.903 46.0933 160.87Z" fill="#263238"/>
<path d="M54.8585 161.182C54.5152 160.115 53.4299 160.221 52.7392 160.601C51.5591 161.316 50.5545 162.397 49.8267 163.735C49.8226 163.739 49.8192 163.744 49.8169 163.75C49.8147 163.756 49.8135 163.762 49.8135 163.768C49.8135 163.775 49.8147 163.781 49.8169 163.787C49.8192 163.793 49.8226 163.798 49.8267 163.802C49.8187 163.834 49.817 163.868 49.8217 163.902C49.8265 163.935 49.8376 163.966 49.854 163.993C49.8705 164.02 49.892 164.043 49.9167 164.058C49.9414 164.073 49.9687 164.081 49.9964 164.081C51.2277 163.927 52.5616 163.956 53.7219 163.35C54.4165 162.995 55.1821 162.173 54.8585 161.182ZM51.8473 163.384C51.2435 163.48 50.6357 163.533 50.0358 163.653C50.5877 163.023 51.166 162.427 51.7684 161.87C52.0625 161.604 52.3711 161.364 52.6919 161.149C53.1931 160.827 55.0046 160.38 54.3731 162.11C54.0258 163.086 52.5695 163.278 51.8473 163.384Z" fill="#263238"/>
<path d="M67.2783 76.2175C67.2783 76.2175 63.5449 121.18 63.458 121.752C63.458 121.824 63.4186 122.69 63.383 124.103C63.1818 131.842 62.6845 155.977 62.6845 155.977H47.4587C47.4587 155.977 48.4493 127.391 49.0374 120.724C49.7635 112.216 54.3494 76.2175 54.3494 76.2175H67.2783Z" fill="#455A64"/>
<path d="M61.6425 123.334C62.1108 113.595 62.8172 103.877 63.7618 94.1805C64.2946 88.7152 64.9457 83.2739 65.5772 77.8374C65.5772 77.7893 65.6443 77.7893 65.6403 77.8374C64.4564 87.5327 63.6276 97.3001 62.9054 107.053C62.1832 116.806 61.6859 126.569 61.3583 136.341C61.1728 141.883 61.0347 147.425 60.8887 152.963C60.8845 152.986 60.8738 153.008 60.8583 153.023C60.8429 153.038 60.8237 153.046 60.8039 153.046C60.784 153.046 60.7648 153.038 60.7493 153.023C60.7339 153.008 60.7232 152.986 60.719 152.963C60.9321 143.075 61.165 133.197 61.6425 123.334Z" fill="#263238"/>
<path d="M48.4178 152.987C48.8124 152.924 49.2505 152.944 49.657 152.929C50.0635 152.915 50.5726 152.929 51.0264 152.881C51.9105 152.843 52.7905 152.814 53.6746 152.795C55.4505 152.761 57.2265 152.795 59.0103 152.843L60.4784 152.905C60.9994 152.905 61.5203 152.987 62.057 152.982C62.0965 152.982 62.0965 153.04 62.057 153.04C61.1612 153.04 60.2535 153.136 59.3576 153.174C58.4617 153.213 57.5974 153.232 56.7134 153.246C54.9375 153.275 53.1615 153.246 51.3777 153.179C50.8883 153.155 50.3989 153.15 49.9096 153.131L49.1203 153.088C48.8874 153.088 48.6546 153.088 48.4257 153.064C48.4173 153.065 48.4088 153.062 48.4022 153.056C48.3955 153.05 48.3912 153.04 48.3901 153.03C48.3891 153.02 48.3914 153.01 48.3966 153.001C48.4018 152.993 48.4094 152.988 48.4178 152.987Z" fill="#263238"/>
<path d="M67.2784 76.2175C67.2784 76.2175 63.5449 121.18 63.4581 121.752C63.4581 121.824 63.4186 122.69 63.3831 124.103L56.2043 76.2175H67.2784Z" fill="#263238"/>
<path d="M78.8022 172.892C79.5915 172.791 98.8783 162.062 99.4032 161.086C99.6044 160.721 98.4836 157.202 97.0352 153.006C96.7235 152.098 96.4314 151.141 96.0565 150.218C95.5908 149.055 95.1133 147.892 94.6397 146.781C92.6033 141.974 90.7326 137.994 90.7326 137.994L78.4983 144.724L82.0344 153.52L83.4828 157.135L84.572 159.856C84.572 159.856 78.6956 167.994 78.2142 169.138C77.7327 170.282 78.0287 172.993 78.8022 172.892Z" fill="#F7A9A0"/>
<path d="M78.8022 172.892C79.5915 172.791 98.8783 162.062 99.4032 161.086C99.6044 160.721 98.4836 157.202 97.0352 153.006C96.7235 152.098 96.4314 151.141 96.0565 150.218C95.5908 149.055 95.1133 147.892 94.6397 146.781C90.8668 148.839 85.4284 151.742 82.0384 153.54L83.4867 157.154L84.576 159.875C84.576 159.875 78.6996 168.013 78.2181 169.157C77.7366 170.301 78.0287 172.993 78.8022 172.892Z" fill="white"/>
<path d="M78.7589 172.959C79.5482 172.858 98.9455 162.067 99.4704 161.086C99.715 160.634 98.0023 155.51 96.104 150.156L83.475 157.13L84.5722 159.87C84.5722 159.87 78.6523 168.042 78.1748 169.2C77.6973 170.359 77.9933 173.06 78.7589 172.959Z" fill="white"/>
<path d="M78.68 171.858C81.8964 169.936 95.0187 162.634 98.318 161.048C98.3456 161.048 98.3535 161.048 98.318 161.077C95.1608 163.047 81.9951 170.21 78.6958 171.921C78.6366 171.959 78.6129 171.897 78.68 171.858Z" fill="#263238"/>
<path d="M83.7709 159.245C84.9549 158.245 86.5967 157.611 87.9937 158.178C88.045 158.202 88.0213 158.294 87.974 158.303C86.5698 158.502 85.1871 158.884 83.8499 159.442C83.829 159.451 83.8062 159.45 83.7859 159.44C83.7655 159.429 83.749 159.41 83.7393 159.386C83.7296 159.362 83.7275 159.334 83.7333 159.308C83.7391 159.283 83.7525 159.26 83.7709 159.245Z" fill="#263238"/>
<path d="M83.1237 160.437C84.3077 159.438 85.9494 158.803 87.3426 159.37C87.3978 159.394 87.3702 159.486 87.3426 159.495C85.9398 159.693 84.5584 160.073 83.2224 160.63C83.2014 160.646 83.1762 160.651 83.1521 160.644C83.128 160.637 83.1072 160.619 83.0941 160.594C83.081 160.568 83.0768 160.537 83.0823 160.508C83.0879 160.479 83.1028 160.453 83.1237 160.437Z" fill="#263238"/>
<path d="M82.4331 161.629C83.617 160.625 85.2588 159.995 86.6519 160.562C86.7072 160.586 86.6795 160.678 86.6322 160.687C85.2294 160.885 83.8481 161.265 82.512 161.822C82.4921 161.827 82.4713 161.825 82.4529 161.814C82.4344 161.803 82.4195 161.786 82.4103 161.763C82.4012 161.741 82.3985 161.716 82.4026 161.692C82.4068 161.667 82.4175 161.645 82.4331 161.629Z" fill="#263238"/>
<path d="M81.762 162.822C82.946 161.817 84.5877 161.187 85.9848 161.754C86.0361 161.778 86.0124 161.87 85.9848 161.879C84.5807 162.076 83.198 162.456 81.8607 163.014C81.8397 163.03 81.8145 163.035 81.7904 163.028C81.7664 163.021 81.7455 163.003 81.7324 162.978C81.7193 162.952 81.7151 162.921 81.7206 162.892C81.7262 162.863 81.7411 162.837 81.762 162.822Z" fill="#263238"/>
<path d="M81.4622 158.856C82.6895 159.212 83.9998 158.904 85.2351 158.793C85.2622 158.789 85.2881 158.776 85.3104 158.757C85.3327 158.738 85.3509 158.712 85.3633 158.682C85.3757 158.653 85.382 158.62 85.3817 158.586C85.3813 158.553 85.3744 158.52 85.3613 158.491C85.3656 158.486 85.3691 158.48 85.3714 158.473C85.3738 158.467 85.375 158.459 85.375 158.452C85.375 158.445 85.3738 158.438 85.3714 158.431C85.3691 158.425 85.3656 158.419 85.3613 158.414C84.4531 157.252 83.3119 156.399 82.0502 155.938C81.3122 155.688 80.2309 155.832 80.0454 156.952C79.8599 158.072 80.7557 158.649 81.4622 158.856ZM80.6728 157.784C79.8086 156.198 81.6516 156.255 82.1923 156.467C82.5383 156.612 82.8759 156.785 83.2026 156.986C83.8804 157.407 84.5392 157.873 85.1759 158.38C84.5642 158.38 83.9603 158.462 83.3526 158.495C82.6067 158.539 81.1504 158.659 80.665 157.784H80.6728Z" fill="#263238"/>
<path d="M88.7554 153.665C88.0805 152.862 87.1254 153.487 86.6282 154.203C85.7989 155.451 85.2544 156.943 85.0496 158.529C85.0483 158.537 85.0484 158.544 85.0501 158.552C85.0518 158.559 85.0548 158.566 85.0591 158.572C85.0633 158.577 85.0686 158.581 85.0745 158.584C85.0804 158.587 85.0867 158.588 85.093 158.587C85.0967 158.619 85.1066 158.651 85.122 158.678C85.1373 158.705 85.1577 158.728 85.1815 158.743C85.2053 158.759 85.2318 158.768 85.2589 158.769C85.2861 158.771 85.313 158.764 85.3377 158.75C86.4111 157.995 87.6345 157.347 88.4949 156.212C88.9685 155.539 89.3908 154.419 88.7554 153.665ZM86.7584 157.183C86.2414 157.572 85.7086 157.928 85.1798 158.337C85.4695 157.485 85.7948 156.653 86.1546 155.842C86.3318 155.451 86.5323 155.077 86.7545 154.722C87.1018 154.179 88.5975 152.862 88.6133 154.765C88.6488 155.818 87.378 156.722 86.7584 157.183Z" fill="#263238"/>
<path d="M54.3337 76.2175C54.3337 76.2175 55.3362 82.7163 59.0696 86.0186C59.0696 86.0186 67.2745 119.45 68.34 123.286C70.1752 129.89 80.0494 152.271 80.0494 152.271L95.2871 144.306C95.2871 144.306 83.6487 119.392 82.3937 117.469C81.561 116.196 75.3925 89.1094 75.3807 88.3931C75.2504 80.4331 73.0562 76.1983 73.0562 76.1983L54.3337 76.2175Z" fill="#455A64"/>
<path d="M66.6587 78.5729C66.9732 79.8777 67.6286 81.0219 68.5254 81.8319C69.5174 82.69 70.6919 83.1807 71.9076 83.2451C72.1128 83.2451 72.1286 83.644 71.9076 83.644C69.4252 83.644 66.9152 81.7213 66.5521 78.5921C66.5482 78.5344 66.6468 78.5056 66.6587 78.5729Z" fill="#263238"/>
<path d="M56.6818 83.9613C57.5828 84.4015 58.4428 84.9574 59.2471 85.6196C60.0995 86.2589 60.8849 87.0136 61.7097 87.7058C61.7413 87.7346 61.7097 87.7971 61.6781 87.7731C60.8178 87.1674 59.918 86.6435 59.0616 86.0186C58.2086 85.4489 57.399 84.7877 56.6423 84.043C56.6068 84.0142 56.6344 83.9421 56.6818 83.9613Z" fill="#263238"/>
<path d="M56.3228 77.6548C56.457 78.3469 56.6227 79.0343 56.7727 79.7217C56.9226 80.4091 57.0213 81.0243 57.1673 81.6444C57.3078 82.2613 57.5898 82.8166 57.9803 83.2451C58.1974 83.471 58.4381 83.6681 58.6709 83.87C58.7933 83.9805 58.9275 84.0863 59.0656 84.2016C59.0459 84.1103 59.0301 84.0142 59.0143 83.9228C58.963 83.6585 58.9196 83.3941 58.8722 83.1345C58.7696 82.5481 58.667 81.9617 58.5723 81.3752C58.3828 80.2264 58.2053 79.0632 57.9645 77.9239C57.9645 77.8807 58.0119 77.8567 58.0237 77.9239C58.3039 79.0487 58.6078 80.1591 58.8564 81.2887C58.9788 81.8463 59.4445 84.6054 59.4682 84.7977C59.4918 84.9899 59.5116 85.2014 59.5274 85.4081C59.5568 85.6128 59.5648 85.8211 59.551 86.0282C59.5476 86.0374 59.542 86.0452 59.535 86.0507C59.528 86.0561 59.5199 86.0591 59.5116 86.0591C59.5032 86.0591 59.4951 86.0561 59.4881 86.0507C59.4811 86.0452 59.4756 86.0374 59.4721 86.0282C59.3957 85.8387 59.3387 85.6386 59.3024 85.4322C59.255 85.2351 59.2077 85.038 59.1722 84.8361L59.1366 84.615C58.9077 84.4612 58.6907 84.2545 58.4736 84.0814C58.2566 83.9084 58.0001 83.7113 57.779 83.5046C57.3675 83.12 57.0619 82.5919 56.9029 81.9905C56.7372 81.3451 56.6222 80.682 56.5596 80.0101C56.4569 79.2266 56.3741 78.4335 56.2517 77.6548C56.2596 77.6307 56.3149 77.6067 56.3228 77.6548Z" fill="#263238"/>
<path d="M79.9902 148.526C80.3375 148.271 83.9367 146.228 84.726 145.777C86.3402 144.878 91.9245 142.09 92.4494 141.854C92.6231 141.777 92.6349 141.893 92.5007 141.974C91.6759 142.455 88.4476 144.267 87.6425 144.714C86.0245 145.608 80.223 148.512 79.9981 148.593C79.9927 148.591 79.9879 148.587 79.9843 148.582C79.9807 148.576 79.9783 148.57 79.9775 148.563C79.9767 148.556 79.9774 148.549 79.9797 148.542C79.9819 148.536 79.9855 148.53 79.9902 148.526Z" fill="#263238"/>
<path d="M72.0732 76.9818C73.4111 79.4351 74.1426 82.3047 74.1807 85.2495C74.1887 85.9849 74.1451 86.7198 74.0505 87.4462C74.0268 87.6289 74.0071 87.8115 73.9755 87.9894L73.9281 88.2634C73.908 88.3361 73.8987 88.4126 73.9005 88.4893C73.936 88.8258 74.011 89.1911 74.0741 89.542C74.3504 90.9552 74.6582 92.3684 74.9621 93.7719C76.2053 99.4007 77.4603 105.029 78.7824 110.629L79.7769 114.826C79.9466 115.523 80.1202 116.22 80.3018 116.912C80.3926 117.253 80.4833 117.609 80.5899 117.926C80.6965 118.243 80.8425 118.565 80.9845 118.887C82.1133 121.449 83.3327 123.963 84.5088 126.497C84.5088 126.497 90.5154 138.788 91.7507 141.619C91.806 141.749 91.7784 141.835 91.6679 141.657C90.5944 139.956 86.6834 131.702 84.2444 126.684C83.0249 124.175 81.8212 121.661 80.6688 119.094C80.5189 118.777 80.3886 118.44 80.2505 118.104C80.1123 117.767 80.0413 117.407 79.9466 117.056C79.7611 116.359 79.5835 115.662 79.4099 114.965C79.0678 113.568 78.7324 112.168 78.4035 110.764C77.113 105.145 75.8422 99.5257 74.678 93.8681C74.3859 92.4501 74.0978 91.0369 73.8413 89.6093C73.7709 89.2492 73.7156 88.885 73.6755 88.5181C73.6725 88.4123 73.6845 88.3065 73.7111 88.2057L73.7584 87.9413C73.7939 87.7683 73.8137 87.5904 73.8413 87.4126C73.9394 86.6992 73.9922 85.9776 73.9992 85.2543C74.0135 82.3303 73.3456 79.4614 72.0732 76.9818Z" fill="#263238"/>
<path d="M52.4157 61.0088C51.8026 63.252 51.1449 65.3349 50.4424 67.2577L43.532 65.508C43.0946 65.4004 42.6792 65.1883 42.3095 64.8841C41.9398 64.5798 41.6233 64.1894 41.3782 63.7353C41.1331 63.2812 40.9642 62.7725 40.8814 62.2386C40.7986 61.7046 40.8035 61.156 40.8957 60.6243C41.0011 60.0122 41.2212 59.438 41.539 58.9467C41.8603 58.456 42.2639 58.0544 42.7229 57.769C44.0121 56.9486 45.0614 55.6627 45.7272 54.0875C46.3929 52.5124 46.6425 50.7251 46.4417 48.9704C46.241 47.2158 45.5997 45.5797 44.6057 44.2862C43.6118 42.9928 42.3138 42.1053 40.8895 41.7454C39.4653 41.3855 37.9846 41.5707 36.6502 42.2757C35.3158 42.9808 34.193 44.1711 33.4357 45.6836C32.6783 47.1961 32.3235 48.9568 32.4198 50.7245C32.516 52.4923 33.0587 54.1805 33.9734 55.5579C34.3029 56.0383 34.5405 56.602 34.6688 57.2081C34.7972 57.8142 34.8131 58.4475 34.7154 59.0621C34.6252 59.5915 34.4502 60.0941 34.2004 60.5411C33.9506 60.9881 33.6309 61.3707 33.2596 61.6672C32.8883 61.9636 32.4727 62.168 32.0365 62.2686C31.6003 62.3693 31.1521 62.3642 30.7175 62.2538L13.4198 57.8652L17.0112 36.773C17.1012 36.2437 17.1048 35.6979 17.0216 35.1669C16.9385 34.636 16.7702 34.1302 16.5265 33.6784C16.2828 33.2267 15.9683 32.8378 15.6012 32.5341C15.234 32.2304 14.8214 32.0178 14.3867 31.9085C13.885 31.7838 13.3663 31.8019 12.8713 31.9614C12.3737 32.1262 11.9099 32.416 11.5097 32.8122C10.3792 33.9248 8.99396 34.5846 7.54366 34.7012C6.09336 34.8177 4.64893 34.3854 3.4082 33.4633C2.16748 32.5412 1.19112 31.1745 0.612863 29.5504C0.0346032 27.9263 -0.11728 26.1241 0.178005 24.3907C0.47329 22.6574 1.2013 21.0776 2.26235 19.8677C3.32339 18.6579 4.66558 17.8771 6.10507 17.6324C7.54457 17.3876 9.01099 17.6909 10.3035 18.5006C11.596 19.3103 12.6514 20.5869 13.3251 22.1555C13.5558 22.7145 13.886 23.2039 14.2915 23.5881C14.697 23.9722 15.1677 24.2415 15.6694 24.3762C16.104 24.4873 16.5523 24.4929 16.9887 24.3925C17.4251 24.2921 17.8409 24.0878 18.2123 23.7913C18.5837 23.4948 18.9034 23.1119 19.1531 22.6645C19.4028 22.2172 19.5775 21.7143 19.6672 21.1845L23.2625 0.0971069H23.2822C31.1043 2.0727 37.2609 6.28345 41.9455 11.744C45.2888 15.6718 48.0099 20.3156 49.9727 25.4433C54.6336 37.4748 55.1033 51.1741 52.4157 61.0088Z" fill="white"/>
<path d="M74.2953 78.7603L53.0984 78.9333C53.0984 79.4428 54.1679 58.7015 59.6062 46.4634C59.9772 45.6319 63.3042 44.7089 64.7802 46.3481C71.2565 53.539 74.2953 79.0871 74.2953 78.7603Z" fill="#A6A6A6"/>
<g opacity="0.1">
<path d="M59.3773 72.8432C59.2602 72.7055 59.1162 72.6063 58.959 72.5551C58.8018 72.5038 58.6364 72.5022 58.4785 72.5503C58.3206 72.5983 58.1753 72.6946 58.0564 72.8299C57.9374 72.9653 57.8488 73.1353 57.7986 73.3239C57.5263 74.3429 58.0709 75.3379 58.7971 75.8186C59.1734 76.0718 59.5931 76.2144 60.0227 76.2353C60.4523 76.2562 60.8799 76.1546 61.2716 75.9388C62.0175 75.5302 61.8123 74.1122 61.0782 73.8719C60.7198 73.8054 60.3671 73.6992 60.0245 73.5546C59.7482 73.3912 59.6022 73.0691 59.3773 72.8432Z" fill="black"/>
<path d="M58.4457 69.4688C58.0116 71.0022 59.8665 72.6605 60.9755 71.978C61.0663 71.9156 61.1442 71.8288 61.2033 71.7243C61.2625 71.6198 61.3014 71.5002 61.317 71.3747C61.3326 71.2491 61.3245 71.1209 61.2934 70.9997C61.2622 70.8786 61.2088 70.7676 61.1373 70.6753C60.8689 70.334 60.6242 70.2475 60.3835 69.9399C60.3002 69.8358 60.2298 69.7176 60.1743 69.589C60.0493 69.315 59.8786 69.0759 59.6731 68.8872C59.564 68.8084 59.4415 68.7609 59.315 68.7482C59.1886 68.7356 59.0615 68.7581 58.9432 68.8142C58.825 68.8702 58.7187 68.9583 58.6325 69.0717C58.5463 69.1851 58.4825 69.3209 58.4457 69.4688Z" fill="black"/>
<path d="M55.2491 69.0602C54.7716 69.6466 54.9808 70.6801 55.2767 71.3242C55.408 71.6448 55.607 71.917 55.8532 72.113C56.0994 72.3089 56.384 72.4216 56.6778 72.4394C56.7842 72.4344 56.8873 72.3925 56.975 72.3187C57.0626 72.2449 57.1312 72.1422 57.1726 72.0227C57.214 71.9031 57.2266 71.7716 57.2088 71.6437C57.1911 71.5157 57.1438 71.3965 57.0724 71.3002C56.863 71.0558 56.7093 70.7494 56.6265 70.4109C56.4962 69.8966 56.441 69.2429 56.0147 68.9689C55.8953 68.8845 55.7572 68.848 55.6198 68.8644C55.4825 68.8807 55.3528 68.9492 55.2491 69.0602Z" fill="black"/>
<path d="M63.2171 71.9827C63.053 71.9839 62.8958 72.0629 62.7786 72.2028C62.6615 72.3428 62.5937 72.5328 62.5896 72.7326C62.5926 72.9429 62.6557 73.1453 62.7681 73.305C62.8805 73.4647 63.0351 73.5717 63.2053 73.6074C63.4444 73.6703 63.6937 73.6366 63.9157 73.5113C64.028 73.4389 64.1149 73.3194 64.1603 73.1748C64.2151 73.0322 64.2276 72.8708 64.1958 72.7182C64.1629 72.5763 64.0956 72.4499 64.0026 72.3555C63.9096 72.2612 63.7954 72.2033 63.6749 72.1894C63.6488 72.1615 63.6211 72.1358 63.592 72.1125C63.4796 72.0271 63.3496 71.9821 63.2171 71.9827Z" fill="black"/>
<path d="M56.7489 65.4263C56.2516 66.2146 56.6502 67.7864 57.3369 68.2383C57.4284 68.3021 57.5318 68.3361 57.6372 68.3369C57.7426 68.3378 57.8464 68.3054 57.9385 68.2431C58.0306 68.1807 58.1079 68.0904 58.1629 67.9809C58.2179 67.8714 58.2488 67.7465 58.2525 67.6182C58.249 67.457 58.2358 67.2963 58.2131 67.1375C58.2131 66.9644 58.1657 66.8539 58.1618 66.7481C58.1786 66.3883 58.1533 66.0274 58.0868 65.6762C58.0472 65.5098 57.9694 65.3605 57.8625 65.2462C57.7556 65.1318 57.624 65.0571 57.4834 65.0308C57.3427 65.0046 57.1989 65.0278 57.0687 65.0979C56.9386 65.168 56.8276 65.2819 56.7489 65.4263Z" fill="black"/>
<path d="M54.9294 73.6651C54.2585 74.9004 55.7187 76.6501 56.7488 76.5492C57.0882 76.5155 57.4631 76.0348 57.2066 75.5878C57.0014 75.2465 56.7449 74.9581 56.5594 74.6265C56.3344 74.1938 56.2397 73.6651 55.8371 73.4007C55.687 73.2939 55.5088 73.2617 55.3397 73.311C55.1706 73.3602 55.0236 73.4871 54.9294 73.6651Z" fill="black"/>
</g>
<g opacity="0.1">
<path d="M70.5301 71.3242C70.5329 71.774 70.4346 72.2161 70.2459 72.6028C69.9658 72.9442 69.7219 73.3269 69.5198 73.742C69.4897 73.8408 69.4811 73.9474 69.4949 74.0513C69.5087 74.1553 69.5443 74.2532 69.5983 74.3355C69.6524 74.4177 69.723 74.4816 69.8033 74.5208C69.8835 74.56 69.9708 74.5732 70.0565 74.5592C70.6351 74.3831 71.1389 73.9506 71.4695 73.3461C71.8002 72.7416 71.9338 72.0086 71.8443 71.2905C71.8143 71.1026 71.7307 70.9335 71.6084 70.8133C71.486 70.6931 71.3327 70.6293 71.1755 70.6334C71.0184 70.6374 70.8674 70.7089 70.7493 70.8353C70.6312 70.9617 70.5536 71.1349 70.5301 71.3242Z" fill="black"/>
<path d="M68.9832 67.4788C68.845 68.07 68.9437 68.6949 68.8411 69.3053C68.7509 69.8609 68.6349 70.4097 68.4938 70.9493C68.3872 71.3338 68.7266 71.8818 69.0779 71.6318C69.6501 71.2656 70.0872 70.6491 70.3013 69.9062C70.4986 69.2236 70.696 68.0988 70.3605 67.4451C70.025 66.7914 69.1805 66.6472 68.9832 67.4788Z" fill="black"/>
<path d="M67.5978 73.3767C67.3592 73.8594 67.034 74.2702 66.6467 74.5784C66.5508 74.6283 66.4647 74.7028 66.3944 74.7967C66.3241 74.8906 66.2711 75.0017 66.239 75.1227C66.2069 75.2436 66.1965 75.3715 66.2084 75.4978C66.2203 75.6241 66.2544 75.7457 66.3082 75.8546C66.362 75.9635 66.4344 76.0571 66.5204 76.1291C66.6064 76.201 66.7041 76.2497 66.8068 76.2718C66.9096 76.2938 67.0151 76.2889 67.1161 76.2571C67.2172 76.2254 67.3114 76.1676 67.3926 76.0877C67.7247 75.8549 68.011 75.5362 68.2312 75.1542C68.4514 74.7723 68.6003 74.3361 68.6673 73.8766C68.6786 73.7196 68.6475 73.5625 68.5789 73.4289C68.5104 73.2953 68.4079 73.1925 68.2872 73.136C68.1664 73.0796 68.0338 73.0725 67.9094 73.1159C67.7851 73.1593 67.6757 73.2509 67.5978 73.3767Z" fill="black"/>
</g>
<g opacity="0.1">
<path d="M62.1636 54.8802C62.3568 54.9008 62.5492 54.8299 62.7006 54.6821C62.8521 54.5344 62.9509 54.3213 62.9766 54.087C63.0831 53.1737 62.3451 52.3566 61.7926 51.8759C61.2401 51.3952 60.4547 51.0011 59.7641 51.3952C59.6716 51.4466 59.5915 51.526 59.5313 51.6257C59.4711 51.7255 59.4328 51.8423 59.4202 51.9652C59.4075 52.088 59.4209 52.2128 59.4589 52.3275C59.497 52.4423 59.5586 52.5433 59.6378 52.621C60.0009 53.0536 60.4705 53.3372 60.8494 53.7554C61.2282 54.1736 61.5637 54.8465 62.1636 54.8802Z" fill="black"/>
<path d="M64.5748 57.3845C64.8076 56.8461 64.5195 56.1492 64.2709 55.6973C64.1361 55.4539 63.9472 55.2621 63.7263 55.1445C63.576 55.0548 63.4027 55.0414 63.2444 55.1072C63.086 55.173 62.9556 55.3126 62.8817 55.4954C62.8129 55.7427 62.8241 56.0127 62.9133 56.2501C62.9567 56.3751 63.008 56.4808 63.0632 56.6058V56.6394V56.6731C63.1574 57.0657 63.3296 57.4239 63.5645 57.7162C63.6442 57.7931 63.7377 57.8462 63.8373 57.8712C63.9369 57.8962 64.04 57.8924 64.1382 57.8602C64.2364 57.8279 64.3271 57.7681 64.4029 57.6855C64.4787 57.6029 64.5376 57.4998 64.5748 57.3845Z" fill="black"/>
<path d="M65.9602 54.7264C65.7991 53.7229 65.3853 52.8055 64.7762 52.1018C64.3065 51.525 63.5093 50.6021 62.8029 50.9386C62.7293 50.9807 62.6682 51.0495 62.628 51.1356C62.5877 51.2216 62.5702 51.3207 62.578 51.4193C62.578 52.1211 63.3239 52.7748 63.6593 53.2891C64.0816 53.938 64.4092 54.6783 64.8433 55.3176C64.9355 55.4329 65.0543 55.5113 65.184 55.5424C65.3137 55.5734 65.4481 55.5557 65.5693 55.4915C65.6905 55.4274 65.7928 55.3198 65.8626 55.1831C65.9324 55.0465 65.9664 54.8871 65.9602 54.7264Z" fill="black"/>
<path d="M64.3658 60.9656C64.4936 60.9758 64.6217 60.9512 64.7407 60.8935C64.9177 60.8003 65.0588 60.6284 65.1354 60.4128C65.2079 60.18 65.2296 59.9283 65.1985 59.6822C65.1724 59.4484 65.0977 59.2267 64.9815 59.0381L64.8552 58.8891L64.6934 58.7737C64.5502 58.7136 64.3946 58.7136 64.2514 58.7737C64.1208 58.8194 64.0042 58.9106 63.9158 59.0362C63.8274 59.1618 63.7712 59.3162 63.7541 59.4803C63.7205 59.7281 63.7046 59.979 63.7067 60.2301L63.758 60.4513C63.7917 60.562 63.8489 60.6598 63.9238 60.7349C64.0448 60.8717 64.201 60.9532 64.3658 60.9656Z" fill="black"/>
<path d="M66.1535 59.1871C66.2847 59.1598 66.4053 59.082 66.4976 58.9653C66.5899 58.8485 66.6491 58.6988 66.6666 58.5382C66.6924 58.2079 66.6432 57.8754 66.5245 57.5768C66.4426 57.2861 66.2932 57.0306 66.0943 56.8414C66.027 56.7813 65.9481 56.7436 65.8652 56.7319C65.7823 56.7202 65.6983 56.7349 65.6215 56.7747C65.5447 56.8144 65.4777 56.8778 65.427 56.9586C65.3764 57.0394 65.3439 57.1348 65.3326 57.2355C65.328 57.4813 65.3493 57.7269 65.3958 57.9662C65.3958 58.0671 65.3958 58.1728 65.4195 58.2786C65.4314 58.4427 65.4606 58.6042 65.5063 58.7593C65.5614 58.9065 65.6544 59.0279 65.7711 59.1051C65.8879 59.1823 66.0221 59.211 66.1535 59.1871Z" fill="black"/>
</g>
<path d="M64.0737 52.8565C62.7556 56.3078 56.6819 69.4351 52.5735 69.9639C47.6048 70.5984 41.2903 69.2477 38.5277 67.6085C36.9807 66.6904 41.0022 57.4758 42.4743 58.0863C44.8027 59.0476 49.3294 59.5283 50.2293 59.61C51.1291 59.6917 57.412 53.8851 60.9125 50.6982C64.05 47.8334 64.8512 50.8232 64.0737 52.8565Z" fill="#F7A9A0"/>
<path d="M37.5175 57.918C38.0661 57.894 38.0582 57.5431 37.2688 56.8461C36.4795 56.1491 32.8645 54.2024 33.5275 52.7267C34.1905 51.251 39.254 54.0774 40.4971 55.3608C41.5467 56.5578 42.5118 57.8602 43.382 59.2543C42.3046 58.9419 39.6368 58.4948 37.5175 57.918Z" fill="#F7A9A0"/>
<path d="M40.797 68.5892C37.7068 67.6278 33.851 66.5607 31.4002 63.4843C31.1226 63.1495 30.9448 62.7114 30.8951 62.2394C29.7743 60.8839 29.9637 59.836 29.9637 59.836C29.2415 58.1873 29.569 57.1442 29.569 57.1442C29.569 57.1442 28.2706 55.5339 28.9376 54.4187C29.6835 53.1641 31.3608 55.6685 32.9749 56.3414C36.6728 57.9229 42.2927 58.9131 43.3938 59.2255L40.797 68.5892Z" fill="#F7A9A0"/>
<path d="M35.8835 61.3309C34.803 60.8819 33.7482 60.3455 32.7263 59.7254C31.6405 58.957 30.6024 58.0927 29.6204 57.1393C29.5888 57.1105 29.5493 57.1393 29.577 57.1922C31.3265 59.27 33.5106 60.7232 35.8914 61.3933C35.9191 61.4078 35.9348 61.3549 35.8835 61.3309Z" fill="#263238"/>
<path d="M35.4217 64.1861C34.3917 63.6333 32.6078 62.672 29.9913 59.7879C31.427 61.8505 33.3061 63.3851 35.4178 64.2198C35.4691 64.2774 35.4928 64.2246 35.4217 64.1861Z" fill="#263238"/>
<path d="M35.1533 65.7195C33.6131 64.8004 32.1831 63.6296 30.9029 62.2394C30.8792 62.2394 30.9029 62.2394 30.9029 62.2394C32.5052 64.2342 33.2708 64.7341 35.1454 65.7772C35.1967 65.8301 35.2204 65.7579 35.1533 65.7195Z" fill="#263238"/>
<path d="M44.3449 58.1248L40.9587 69.5457C40.9587 69.5457 49.799 71.8097 53.343 70.1898C56.887 68.5699 61.5755 60.0955 63.7935 55.1205C66.0114 50.1455 64.8432 45.9876 59.1365 51.525C53.4298 57.0625 50.6752 59.1774 50.2766 59.2784C49.878 59.3793 44.3449 58.1248 44.3449 58.1248Z" fill="#A6A6A6"/>
<g opacity="0.1">
<path d="M52.5615 67.546C52.2531 67.7934 51.8962 67.9361 51.5275 67.9594C51.1382 67.8622 50.7404 67.8251 50.3435 67.8489C50.259 67.8722 50.181 67.9219 50.1171 67.9933C50.0533 68.0646 50.0059 68.155 49.9796 68.2556C49.9532 68.3561 49.9489 68.4633 49.9671 68.5665C49.9853 68.6697 50.0252 68.7653 50.0831 68.8439C50.5209 69.3385 51.0961 69.6133 51.6933 69.6133C52.2904 69.6133 52.8656 69.3385 53.3035 68.8439C53.4083 68.709 53.4718 68.5343 53.4832 68.3491C53.4946 68.1639 53.4533 67.9796 53.3661 67.8272C53.279 67.6748 53.1514 67.5636 53.0049 67.5124C52.8583 67.4612 52.7017 67.4731 52.5615 67.546Z" fill="black"/>
<path d="M54.3138 63.8641C53.8363 64.0467 53.4574 64.4938 52.9838 64.7245C52.5555 64.9416 52.1166 65.1262 51.6696 65.2773C51.346 65.383 51.1565 66.0319 51.5236 66.2386C52.089 66.619 52.752 66.7238 53.3785 66.5318C53.9546 66.354 54.8229 65.9166 55.0991 65.234C55.3754 64.5514 55.0163 63.5949 54.3138 63.8641Z" fill="black"/>
<path d="M49.5307 65.7002C49.0691 65.7239 48.6091 65.6204 48.1849 65.3974C48.0981 65.3308 48.0007 65.2874 47.8992 65.27C47.7976 65.2526 47.6941 65.2616 47.5956 65.2964C47.4971 65.3312 47.4058 65.391 47.3276 65.4719C47.2495 65.5528 47.1863 65.653 47.1422 65.7658C47.0981 65.8786 47.0742 66.0015 47.072 66.1264C47.0697 66.2514 47.0892 66.3754 47.1292 66.4905C47.1692 66.6055 47.2287 66.709 47.3039 66.794C47.379 66.879 47.4682 66.9436 47.5653 66.9836C47.907 67.1938 48.2826 67.3097 48.6653 67.323C49.0479 67.3363 49.4283 67.2467 49.7793 67.0605C49.8923 66.9849 49.9821 66.8666 50.0352 66.7235C50.0883 66.5804 50.1019 66.4201 50.0739 66.2668C50.0458 66.1135 49.9778 65.9754 49.8798 65.8732C49.7819 65.7711 49.6594 65.7104 49.5307 65.7002Z" fill="black"/>
</g>
<g opacity="0.1">
<path d="M62.1636 54.8802C62.3568 54.9008 62.5492 54.8299 62.7006 54.6821C62.8521 54.5344 62.9509 54.3213 62.9766 54.087C63.0831 53.1737 62.3451 52.3566 61.7926 51.8759C61.2401 51.3952 60.4547 51.0011 59.7641 51.3952C59.6716 51.4466 59.5915 51.526 59.5313 51.6257C59.4711 51.7255 59.4328 51.8423 59.4202 51.9652C59.4075 52.088 59.4209 52.2128 59.4589 52.3275C59.497 52.4423 59.5586 52.5433 59.6378 52.621C60.0009 53.0536 60.4705 53.3372 60.8494 53.7554C61.2282 54.1736 61.5637 54.8465 62.1636 54.8802Z" fill="black"/>
<path d="M63.7857 55.1637C63.5765 55.6444 63.3437 56.1251 63.0911 56.6586C63.0902 56.6474 63.0902 56.6362 63.0911 56.625V56.5913C63.0358 56.4664 62.9845 56.3606 62.9411 56.2356C62.852 55.9982 62.8407 55.7282 62.9096 55.481C62.9834 55.2981 63.1139 55.1585 63.2722 55.0927C63.4306 55.0269 63.6039 55.0403 63.7541 55.1301C63.7653 55.1403 63.7759 55.1515 63.7857 55.1637Z" fill="black"/>
<path d="M64.7486 52.097C64.621 52.8331 64.4251 53.5491 64.1645 54.2312C63.9948 53.9188 63.8212 53.6063 63.6317 53.3131C63.2963 52.7988 62.5701 52.1451 62.5504 51.4433C62.5426 51.3447 62.5601 51.2456 62.6004 51.1596C62.6406 51.0735 62.7017 51.0047 62.7753 50.9626C63.4897 50.6069 64.279 51.5058 64.7486 52.097Z" fill="black"/>
</g>
<path d="M53.9429 69.8822C54.2349 69.4015 56.1016 68.7478 61.0901 60.6483C62.1043 58.9948 62.9055 57.3413 63.9119 55.7791C63.9119 55.755 63.9434 55.7791 63.9355 55.7791C63.4501 56.9087 62.9055 57.9998 62.3332 59.0669L62.4635 58.9323C62.8581 58.5333 63.2291 58.1536 63.5725 57.7162C63.5961 57.6825 63.6356 57.7162 63.608 57.7643C63.2567 58.1873 62.941 58.6487 62.5977 59.0765C62.4319 59.288 62.2662 59.4947 62.0886 59.687L61.8715 59.9129C56.5279 68.9881 54.2389 69.5265 53.9784 69.9062C53.9587 69.9399 53.9192 69.8822 53.9429 69.8822Z" fill="#263238"/>
<path d="M42.9675 69.5505C43.166 68.6489 43.4018 67.7601 43.6739 66.8875C43.9186 66.0223 44.1672 65.1571 44.4198 64.2919C44.9329 62.5518 45.4183 60.7877 46.0221 59.0909C46.0221 59.082 46.025 59.0734 46.0302 59.0671C46.0354 59.0608 46.0424 59.0573 46.0498 59.0573C46.0571 59.0573 46.0641 59.0608 46.0693 59.0671C46.0745 59.0734 46.0774 59.082 46.0774 59.0909C45.6827 60.8983 45.1736 62.6672 44.6645 64.4264C44.4119 65.3061 44.1436 66.1857 43.8752 67.0558C43.6289 67.9105 43.3443 68.7481 43.0228 69.5649C43.003 69.6226 42.9596 69.5889 42.9675 69.5505Z" fill="#263238"/>
<path d="M44.3172 58.0142C45.1972 58.12 48.6939 58.9756 49.574 59.0621C49.9656 59.1215 50.3623 59.0218 50.7027 58.7785C51.0973 58.5189 57.4118 53.169 58.1064 52.5297C58.134 52.5297 58.1695 52.5585 58.1419 52.5825C57.4079 53.217 52.4983 57.7547 51.7446 58.394C51.4114 58.6984 51.0605 58.9731 50.6948 59.2159C50.3517 59.4195 49.9617 59.4738 49.5898 59.3697C48.757 59.1679 45.5169 58.4084 44.3803 58.168C44.3566 58.168 44.1909 58.6487 44.1711 58.6487H44.1238C44.1623 58.4268 44.2275 58.213 44.3172 58.0142Z" fill="#263238"/>
<path d="M53.1062 34.0331C53.3588 32.2834 54.4441 29.856 54.2901 28.5485C54.2596 28.2254 54.1445 27.9229 53.9619 27.6857C53.7792 27.4485 53.5387 27.2892 53.2759 27.2315C53.2759 27.2315 54.1678 26.2701 53.8639 25.102C53.7061 24.506 52.7865 24.2945 52.7865 24.2945C52.9784 24.0596 53.1136 23.7651 53.1777 23.443C53.2417 23.121 53.232 22.7837 53.1496 22.4679C52.8931 21.6652 52.013 21.569 52.013 21.569C52.013 21.569 52.3682 20.4106 51.8906 19.6944C50.9198 18.2524 45.0671 20.2087 44.7553 23.1361C44.6053 24.5012 46.0261 23.9292 46.0261 23.9292C46.0261 23.9292 44.1633 25.3712 44.4475 26.8133C44.7316 28.2553 46.5431 27.4093 46.5431 27.4093C46.5431 27.4093 44.7474 28.8081 45.1894 30.2934C45.6314 31.7787 47.3166 30.5962 47.3166 30.5962C47.3166 30.5962 46.255 32.1103 46.8075 33.1582C47.7191 34.8983 49.6451 31.6825 51.0145 31.6249L52.309 33.9706L53.1062 34.0331Z" fill="#F7A9A0"/>
<path d="M53.7731 31.3942C53.6508 33.0717 55.628 34.4369 55.703 36.0616C55.8016 38.2631 53.4219 36.8739 52.3129 33.9994L51.7722 31.596L53.7731 31.3942Z" fill="#F7A9A0"/>
<path d="M52.8064 24.2657C52.8301 24.2657 52.8064 24.2176 52.8064 24.2176C50.4586 24.3256 48.2195 25.4506 46.4919 27.3901C46.4327 27.4574 46.4367 27.592 46.4919 27.5199C47.7074 26.2653 50.8765 24.6983 52.8064 24.2657Z" fill="#263238"/>
<path d="M47.2338 30.8221C48.9387 28.9427 50.9712 27.9381 53.1813 27.2315C53.2128 27.2315 53.1813 27.1738 53.1813 27.1738C52.0249 27.1497 50.6515 27.765 49.6294 28.3562C48.6603 28.8844 47.822 29.7132 47.1983 30.7596C47.1549 30.7933 47.2101 30.8606 47.2338 30.8221Z" fill="#263238"/>
<path d="M60.1312 49.9484C61.1415 50.232 63.2371 48.7659 63.9475 47.0018C63.9948 46.8816 63.8015 45.6463 63.6239 44.1177C63.5173 43.1948 63.4186 42.171 63.3831 41.2336C63.3831 41.0414 58.5684 42.9401 58.5684 42.9401C58.8901 44.1071 59.0929 45.3179 59.1722 46.5452C59.1822 46.6747 59.1822 46.805 59.1722 46.9345C59.1722 46.9345 59.1722 46.973 59.1722 46.997C59.0775 47.7709 59.0498 49.6455 60.1312 49.9484Z" fill="#F7A9A0"/>
<path d="M59.1522 46.9393C59.1522 46.9393 59.1522 46.9778 59.1522 47.0018C59.319 47.0188 59.4867 47.0188 59.6535 47.0018C62.5147 46.7663 63.1106 42.3584 63.2054 41.2336C62.349 41.4355 58.5642 42.9304 58.5642 42.9304C58.886 44.0975 59.0888 45.3082 59.168 46.5355C59.1757 46.6704 59.1704 46.8059 59.1522 46.9393Z" fill="#263238"/>
<path d="M64.0144 33.8312C64.563 35.927 63.7184 42.0028 62.5029 43.3919C60.7427 45.3867 57.8302 45.6223 56.4331 43.0362C55.0755 40.5271 56.295 32.6151 57.6526 31.3605C59.6574 29.5051 63.2014 30.7356 64.0144 33.8312Z" fill="#F7A9A0"/>
<path d="M59.1879 37.5469C59.1879 37.5469 59.2116 37.5469 59.1879 37.5901C59.1208 37.9987 59.1011 38.4794 59.3892 38.6765C59.0498 38.5611 59.0695 37.9218 59.1879 37.5469Z" fill="#263238"/>
<path d="M59.5471 37.196C60.0957 37.2536 59.9417 38.5899 59.4484 38.5371C58.9551 38.4842 59.0853 37.1287 59.5471 37.196Z" fill="#263238"/>
<path d="M57.2185 37.3162C57.2185 37.3162 57.1869 37.3162 57.1869 37.3498C57.1554 37.7632 57.0606 38.2343 56.741 38.3112C57.1238 38.34 57.2422 37.7151 57.2185 37.3162Z" fill="#263238"/>
<path d="M56.9581 36.8403C56.4174 36.7057 56.2398 38.0323 56.741 38.1573C57.2422 38.2823 57.4119 36.9508 56.9581 36.8403Z" fill="#263238"/>
<path d="M60.0403 36.6336C59.9051 36.5611 59.7733 36.4792 59.6457 36.3884C59.4862 36.3297 59.3473 36.2079 59.251 36.0424C59.231 35.9841 59.2275 35.9194 59.241 35.8584C59.2546 35.7975 59.2845 35.7438 59.326 35.7059C59.4144 35.642 59.5153 35.6083 59.618 35.6083C59.7208 35.6083 59.8217 35.642 59.9101 35.7059C60.1048 35.8068 60.2622 35.9916 60.3521 36.225C60.3721 36.2793 60.3785 36.3396 60.3706 36.3983C60.3626 36.457 60.3406 36.5115 60.3074 36.5551C60.2741 36.5987 60.231 36.6294 60.1835 36.6434C60.1361 36.6573 60.0862 36.6539 60.0403 36.6336Z" fill="#263238"/>
<path d="M56.603 36.1048C56.7539 36.0903 56.9041 36.0662 57.0529 36.0327C57.2134 36.0334 57.3698 35.971 57.4989 35.8549C57.5332 35.8081 57.554 35.7491 57.5583 35.6867C57.5626 35.6242 57.55 35.5618 57.5226 35.5088C57.4534 35.4152 57.3651 35.3454 57.2667 35.3066C57.1683 35.2678 57.0633 35.2612 56.9622 35.2877C56.7508 35.3059 56.5526 35.419 56.4057 35.6049C56.3742 35.6496 56.3541 35.7044 56.3478 35.7627C56.3415 35.8211 56.3493 35.8804 56.3702 35.9334C56.3912 35.9864 56.4243 36.0309 56.4657 36.0613C56.507 36.0918 56.5547 36.1069 56.603 36.1048Z" fill="#263238"/>
<path d="M58.8799 40.1377C58.7762 40.2874 58.6485 40.4098 58.5047 40.4974C58.3608 40.585 58.2038 40.636 58.0433 40.6472C57.9028 40.6568 57.762 40.6422 57.6249 40.604H57.546L57.471 40.5607C57.4315 40.5607 57.4157 40.5078 57.4118 40.4598C57.4118 40.4598 57.4118 40.4357 57.4118 40.4213V40.3877C57.4394 40.0656 57.5144 39.5849 57.5144 39.5849C57.4118 39.6282 56.8987 39.8253 56.9224 39.657C57.0996 38.2285 57.3958 36.8257 57.8064 35.4703C57.8087 35.463 57.8127 35.4566 57.818 35.4521C57.8233 35.4477 57.8296 35.4453 57.8361 35.4453C57.8425 35.4453 57.8488 35.4477 57.8541 35.4521C57.8594 35.4566 57.8634 35.463 57.8657 35.4703C57.7078 36.7922 57.3605 38.0708 57.1869 39.3975C57.3694 39.3254 57.5594 39.285 57.7512 39.2773C57.7867 39.2773 57.5933 40.2002 57.5933 40.3444C57.8047 40.4042 58.0239 40.4111 58.2375 40.3648C58.4512 40.3186 58.655 40.2201 58.8365 40.0752C58.8799 40.08 58.9036 40.1089 58.8799 40.1377Z" fill="#263238"/>
<path d="M57.7947 40.4694C57.9159 40.7179 58.087 40.9246 58.2919 41.0702C58.4057 41.1434 58.5353 41.172 58.6629 41.152C58.9431 41.1087 58.9826 40.8059 58.9589 40.5415C58.945 40.4001 58.9172 40.2613 58.876 40.1281C58.5545 40.379 58.1758 40.4986 57.7947 40.4694Z" fill="#263238"/>
<path d="M58.292 41.0702C58.4058 41.1434 58.5353 41.1719 58.663 41.1519C58.9432 41.1087 58.9826 40.8058 58.959 40.5415C58.8151 40.5248 58.6708 40.568 58.5497 40.664C58.4286 40.7601 58.3377 40.9032 58.292 41.0702Z" fill="#FF9BBC"/>
<path d="M56.7251 33.2736C56.9619 32.7929 57.2303 32.2834 57.5144 32.2161C57.7986 32.1488 57.8775 32.9467 58.4616 33.0813C59.2509 33.2688 59.7284 32.4372 60.8295 32.5093C62.4397 32.6102 62.9804 34.3407 62.7396 37.1094C62.5265 39.5801 63.7263 39.9935 63.7263 39.9935C63.7263 39.9935 65.0168 34.6627 63.9394 32.6727C62.862 30.6827 60.056 29.457 57.9406 30.8846C57.175 31.4278 56.7251 33.2736 56.7251 33.2736Z" fill="#263238"/>
<path d="M62.8069 38.8735C62.8069 38.8735 63.9475 36.9172 64.6776 37.4315C65.4077 37.9458 64.5394 40.7963 63.6791 41.152C63.5706 41.2138 63.4528 41.2477 63.3331 41.2517C63.2134 41.2557 63.0943 41.2295 62.9832 41.175C62.8721 41.1204 62.7715 41.0386 62.6875 40.9345C62.6035 40.8305 62.538 40.7065 62.4951 40.5703L62.8069 38.8735Z" fill="#F7A9A0"/>
<path d="M59.3535 30.1684C60.0151 29.8574 60.7105 29.6663 61.4176 29.6012C62.2069 29.5435 64.6419 29.9713 65.1983 30.6202C65.7548 31.2692 65.7548 34.0908 65.7509 34.5041C65.7469 34.9175 65.4588 37.3882 64.6853 37.9362C63.9118 38.4842 64.0696 34.2446 62.9764 32.7448C61.8832 31.2451 59.3535 30.1684 59.3535 30.1684Z" fill="white"/>
<path opacity="0.1" d="M59.3535 30.1684C59.3535 30.1684 61.8714 31.25 62.9606 32.7497C64.0499 34.2494 63.896 38.4746 64.6695 37.9362C65.0299 37.642 65.2797 37.1856 65.3641 36.6672C65.2724 35.0432 64.8667 33.4686 64.1801 32.0719C63.454 30.7645 62.1279 30.029 60.6795 29.7118C60.2282 29.8205 59.7848 29.9732 59.3535 30.1684Z" fill="black"/>
<path d="M64.3303 40.4261C64.3303 39.2965 63.541 36.2058 62.6569 34.3984C61.7729 32.5911 58.9156 31.3461 58.5091 31.3413C57.5225 31.3413 57.2738 31.8893 57.1239 31.7691C56.9739 31.6489 58.0316 30.3655 58.3078 30.1877C58.7447 29.9594 59.2182 29.8543 59.6931 29.88C60.1193 29.9281 62.7437 30.4568 63.6396 31.9037C64.5355 33.3505 65.6721 37.3017 65.3721 38.2679C65.2972 38.4986 65.0327 38.6284 64.9341 38.9553C64.7999 39.3879 64.6973 39.8878 64.571 40.1906C64.4447 40.4934 64.3303 40.5271 64.3303 40.4261Z" fill="white"/>
<path d="M62.4713 33.6053C62.7069 33.4546 62.9314 33.2793 63.1422 33.0814C63.3591 32.8893 63.5553 32.6648 63.7263 32.4132C63.7263 32.4132 63.7657 32.4132 63.7539 32.4132C63.6064 32.6984 63.4241 32.9544 63.2132 33.1727C62.998 33.3842 62.7534 33.547 62.491 33.6534C62.4594 33.6726 62.4437 33.6197 62.4713 33.6053Z" fill="#263238"/>
<path d="M64.4012 39.3062C64.4328 39.2245 64.4801 39.1572 64.5156 39.0802C64.5555 38.9939 64.5898 38.9039 64.6182 38.8111C64.6449 38.6257 64.69 38.4449 64.7524 38.2727C64.82 38.1421 64.8995 38.0212 64.9892 37.9122C65.0986 37.7992 65.1713 37.6424 65.1944 37.47H65.226C65.226 37.8161 65.005 38.042 64.8669 38.316C64.8025 38.5032 64.7497 38.696 64.709 38.8928C64.663 39.0753 64.5686 39.2342 64.4406 39.3446C64.4406 39.3446 64.3893 39.3302 64.4012 39.3062Z" fill="#263238"/>
<path d="M64.1487 38.0612C64.2434 37.941 64.3421 37.8305 64.4289 37.7007C64.5098 37.5705 64.5836 37.434 64.6499 37.2921C64.717 37.1575 64.7722 37.0133 64.8354 36.8691C64.8985 36.7249 65.0051 36.5519 65.0722 36.3884C65.0722 36.3884 65.1077 36.3884 65.0998 36.3884C65.0288 36.5615 64.9814 36.7537 64.9143 36.9316C64.8566 37.0866 64.7893 37.236 64.713 37.3786C64.644 37.5167 64.5633 37.6455 64.4723 37.7632C64.3857 37.8887 64.278 37.9903 64.1566 38.0612C64.1566 38.0612 64.1408 38.0708 64.1487 38.0612Z" fill="#263238"/>
<path d="M63.8723 36.9316C64.0771 36.7479 64.2592 36.5294 64.413 36.2827C64.559 36.0375 64.6972 35.802 64.8313 35.528C64.8313 35.528 64.8668 35.528 64.859 35.528C64.7667 35.8234 64.6433 36.1029 64.4919 36.3596C64.4183 36.4829 64.3336 36.5957 64.2394 36.6961C64.1308 36.7974 64.0129 36.8828 63.8881 36.9508L63.8723 36.9316Z" fill="#263238"/>
<path d="M63.5607 35.85C63.6637 35.7782 63.7536 35.6817 63.8251 35.5664C63.912 35.4463 63.9948 35.3261 64.0777 35.2011L64.3145 34.8406C64.4001 34.7262 64.4635 34.5899 64.5 34.4417C64.5 34.4417 64.5355 34.4417 64.5316 34.4417C64.512 34.5949 64.4677 34.7419 64.4013 34.8743C64.3348 35.0238 64.2568 35.1655 64.1685 35.2973C64.0824 35.4286 63.9888 35.5523 63.8883 35.6674C63.8052 35.7789 63.6966 35.8576 63.5765 35.8933C63.572 35.8947 63.5672 35.8941 63.5631 35.8916C63.5589 35.8891 63.5556 35.8849 63.5537 35.8797C63.5518 35.8746 63.5515 35.8688 63.5528 35.8633C63.5541 35.8579 63.5569 35.8532 63.5607 35.85Z" fill="#263238"/>
<path d="M61.8123 32.9083C61.9075 32.7747 62.0089 32.6479 62.1161 32.5285C62.2267 32.4084 62.345 32.293 62.4634 32.1873C62.6967 31.978 62.9482 31.8007 63.2133 31.6585C63.2133 31.6585 63.2448 31.6585 63.2133 31.6873C62.7476 32.1103 62.274 32.5093 61.8123 32.9323V32.9083Z" fill="#263238"/>
<path d="M61.2913 31.9085C61.3896 31.7783 61.501 31.6636 61.6228 31.5672C61.8814 31.3714 62.1566 31.2102 62.4437 31.0865V31.1202C62.1911 31.2932 61.9385 31.4663 61.6978 31.6537C61.5794 31.7499 61.461 31.8508 61.3505 31.9614C61.24 32.0719 61.1531 32.2065 61.0466 32.3219H61.0269C61.0902 32.163 61.1803 32.0222 61.2913 31.9085Z" fill="#263238"/>
<path d="M60.5415 31.3941C60.6348 31.2668 60.7393 31.1523 60.8533 31.0529C61.0662 30.8636 61.3037 30.719 61.5557 30.6251C61.5557 30.6251 61.5794 30.6251 61.5557 30.6587C61.3224 30.8079 61.0993 30.9799 60.8888 31.173C60.7822 31.2692 60.6836 31.3749 60.5809 31.4759C60.4857 31.588 60.3855 31.6939 60.281 31.7931C60.3574 31.6505 60.4446 31.517 60.5415 31.3941Z" fill="#263238"/>
<path d="M60.0166 30.7885C60.1192 30.6971 60.2258 30.6154 60.3324 30.5385C60.4341 30.4529 60.5459 30.3864 60.6639 30.3414V30.3751C60.4666 30.5417 60.2692 30.7148 60.0719 30.8942C59.9001 31.0674 59.744 31.2623 59.6062 31.4758C59.5864 31.4758 59.6062 31.4758 59.6062 31.4758C59.6809 31.2003 59.8244 30.96 60.0166 30.7885Z" fill="#263238"/>
<path d="M59.334 30.5481C59.5248 30.3606 59.7431 30.2187 59.9772 30.1299C59.9772 30.1299 60.0009 30.1588 59.9772 30.1636C59.7623 30.2864 59.564 30.4485 59.3892 30.6443C59.211 30.8333 59.0509 31.0462 58.9117 31.2788C58.8841 31.2788 58.9117 31.2788 58.9117 31.2788C59.0034 30.9982 59.148 30.7479 59.334 30.5481Z" fill="#263238"/>
<path d="M58.3945 30.9808C58.4225 30.9244 58.4528 30.8699 58.4853 30.8173C58.5516 30.7117 58.6256 30.6136 58.7063 30.5241C58.8783 30.3538 59.0633 30.2041 59.2588 30.0771C59.2588 30.0771 59.2904 30.0771 59.2588 30.1107C59.0693 30.2437 58.8943 30.4052 58.7379 30.5914C58.6618 30.6802 58.5906 30.7749 58.5248 30.875C58.4923 30.9243 58.462 30.9756 58.434 31.0288C58.4087 31.083 58.3797 31.1345 58.3472 31.1826H58.3235C58.336 31.1103 58.3602 31.0417 58.3945 30.9808Z" fill="#263238"/>
<path d="M57.8382 30.9952C57.8935 30.9109 57.9543 30.8322 58.0198 30.7597C58.0844 30.6838 58.1529 30.6132 58.225 30.5482L58.446 30.3511C58.446 30.3511 58.4815 30.3511 58.446 30.3799C58.3713 30.4444 58.3025 30.5186 58.2408 30.601L58.0513 30.8221L57.8659 31.0433C57.8081 31.1248 57.7462 31.2019 57.6804 31.274H57.6606C57.7116 31.1737 57.7712 31.0803 57.8382 30.9952Z" fill="#263238"/>
</svg>
